<?xml version="1.0" encoding="utf-8"?>
<!-- Generator: Adobe Illustrator 18.1.1, SVG Export Plug-In . SVG Version: 6.00 Build 0)  -->
<svg version="1.1" id="Layer_1" xmlns="http://www.w3.org/2000/svg" xmlns:xlink="http://www.w3.org/1999/xlink" x="0px" y="0px"
	 viewBox="0 0 920 188" enable-background="new 0 0 920 188" xml:space="preserve">
<path fill="#B1D055" d="M142.9,27.6c0,0,7.6,3.6,9.4-7.7c0,0-8-3.1-9.6,7c0,0,4.3-4.5,7-5C149.7,21.9,146,24.2,142.9,27.6"/>
<path fill="#66933D" d="M70.7,98.8c0,0,3.8,7.4-7.4,9.5c0,0-3.3-7.8,6.6-9.7c0,0-4.3,4.4-4.7,7.1C65.3,105.6,67.5,101.9,70.7,98.8"
	/>
<path fill="#42862F" d="M69.5,96.2c0,0-3.5,6.2-10.3-0.8c0,0,4-6.1,10.1,0.1c0,0-5.2-1-7.3,0C62,95.6,65.7,95.4,69.5,96.2"/>
<path fill="#B1D055" d="M72.1,97.1c0,0,6-1,5,7.3c0,0-6.2,0.5-5.3-6.9c0,0,2.1,4,3.9,4.9C75.6,102.5,73.5,100.1,72.1,97.1"/>
<path fill="#B1D055" d="M52.7,89.6c0,0,4.8-2.5,6.2,4.8c0,0-5.1,2.2-6.4-4.3c0,0,2.9,2.8,4.6,3C57.2,93.1,54.7,91.7,52.7,89.6"/>
<path fill="#66933D" d="M49.3,89.3c0,0,4.4,0.4,2.2,6c0,0-4.4-0.7-2.5-5.7c0,0,0.7,3.2,1.8,4.1C50.8,93.7,49.8,91.7,49.3,89.3"/>
<path fill="#42862F" d="M46.1,91.8c0,0,6.4,2.4,0.8,9.9c0,0-6.3-2.9-1.4-9.6c0,0-0.2,5.1,1.1,6.9C46.6,99,45.9,95.6,46.1,91.8"/>
<path fill="#66933D" d="M42.7,93c0,0,3.9,6.1-5.6,8.9c0,0-3.5-6.5,4.9-9c0,0-3.4,4.2-3.5,6.5C38.6,99.4,40.2,96,42.7,93"/>
<path fill="#42862F" d="M39.9,92.7c0,0-3,7.8-12.1,0.8c0,0,3.7-7.7,11.8-1.5c0,0-6.2-0.3-8.5,1.2C31.1,93.2,35.4,92.4,39.9,92.7"/>
<path fill="#B1D055" d="M40.6,92c0,0-6.2,0.1-4-8.1c0,0,6.3,0.4,4.4,7.6c0,0-1.5-4.4-3.2-5.5C37.8,86.1,39.5,88.8,40.6,92"/>
<path fill="#66933D" d="M43,90.7c0,0-4.8-1.3-1.2-7.1c0,0,4.8,1.7,1.6,6.8c0,0-0.2-3.7-1.2-4.9C42.2,85.5,42.9,88,43,90.7"/>
<path fill="#42862F" d="M37.2,81.6c0,0,1.6,4-4.2,4.5c0,0-1.3-4.2,3.9-4.7c0,0-2.4,2-2.8,3.4C34.1,84.8,35.4,83,37.2,81.6"/>
<path fill="#B1D055" d="M33,80c0,0,2.2,5.2-5.5,6.1c0,0-1.8-5.5,5-6.3c0,0-3.2,2.8-3.6,4.6C28.9,84.4,30.6,82,33,80"/>
<path fill="#42862F" d="M29,79.2c0,0,0.6,4.3-5.3,3.4c0,0-0.2-4.4,4.9-3.6c0,0-2.9,1.4-3.5,2.6C25.1,81.6,26.8,80.2,29,79.2"/>
<path fill="#66933D" d="M28.9,78.2c0,0-6,0.9-4.9-7.2c0,0,6.1-0.5,5.2,6.8c0,0-2-4-3.8-4.9C25.4,72.9,27.4,75.2,28.9,78.2"/>
<path fill="#66933D" d="M31.9,78.4c0,0-5.6-2.8,0.3-9.1c0,0,5.5,3.3,0.3,8.9c0,0,0.7-4.6-0.3-6.5C32.2,71.8,32.5,75,31.9,78.4"/>
<path fill="#42862F" d="M35.7,79.7c0,0-4.6-3.1,1.3-8c0,0,4.5,3.6-0.8,7.9c0,0,1.2-4,0.5-5.7C36.7,73.9,36.6,76.8,35.7,79.7"/>
<path fill="#B1D055" d="M38.9,80.4c0,0-2.7-6.3,6.7-7.3c0,0,2.2,6.6-6.1,7.6c0,0,3.9-3.3,4.3-5.5C43.8,75.1,41.8,78,38.9,80.4"/>
<path fill="#42862F" d="M42.8,82.3c0,0,0-4.6,6.1-2.9c0,0-0.3,4.7-5.8,3.2c0,0,3.3-1.1,4.1-2.4C47.2,80.2,45.2,81.5,42.8,82.3"/>
<path fill="#66933D" d="M53.6,85.9c0,0-4.1,1.4-4.4-4.5c0,0,4.3-1.1,4.6,4.1c0,0-2-2.6-3.3-3C50.4,82.6,52.2,84,53.6,85.9"/>
<path fill="#B1D055" d="M53.9,81.1c0,0-3.6,3.6-7-2.4c0,0,3.9-3.4,6.9,2c0,0-3.4-1.7-5-1.4C48.8,79.2,51.4,79.8,53.9,81.1"/>
<path fill="#42862F" d="M53.9,77.5c0,0-3.8,2.4-5.5-3.5c0,0,4.1-2.1,5.6,3.1c0,0-2.6-2.1-4.1-2.2C49.9,74.8,52,75.8,53.9,77.5"/>
<path fill="#66933D" d="M54.2,75.9c0,0-4-3,1.5-7.1c0,0,3.8,3.4-1.1,7c0,0,1.2-3.5,0.7-5.1C55.4,70.8,55.2,73.4,54.2,75.9"/>
<path fill="#42862F" d="M55.1,76.7c0,0,0.8-4.7,6.6-1.8c0,0-1.2,4.7-6.3,2.2c0,0,3.5-0.5,4.6-1.6C59.9,75.5,57.7,76.4,55.1,76.7"/>
<path fill="#66933D" d="M55.7,78.7c0,0,2.8-3.2,5.9,1.7c0,0-3.1,3-5.8-1.3c0,0,2.9,1.2,4.2,0.9C60,80,57.8,79.7,55.7,78.7"/>
<path fill="#B1D055" d="M57.4,82.2c0,0,0.4-3.7,5.1-1.8c0,0-0.7,3.8-4.9,2c0,0,2.7-0.6,3.5-1.5C61.1,81,59.4,81.8,57.4,82.2"/>
<path fill="#42862F" d="M63.2,83.6c0,0-0.3-3-1.1-4c0,0,0.1,0.3,0.2,0.8c0,0.1,0.1,0.3,0.1,0.4v0c0.2,0.8,0.4,1.8,0.5,2.9v0
	c0,0,0,0,0,0c-0.2-0.1-1.2-0.4-1.7-1.2c-0.2-0.3-0.4-0.7-0.4-1.2c0,0,0-0.1,0-0.2c0-0.1,0-0.1,0-0.2c0-0.3,0-0.7,0.1-1
	c0-0.1,0.1-0.3,0.1-0.4c0.1-0.4,0.4-0.9,0.7-1.5C61.7,78.1,65.6,79.3,63.2,83.6"/>
<path fill="#66933D" d="M67.9,83.6c0,0-4.6,0.5-3.5-5.8c0,0,4.8-0.1,3.8,5.4c0,0-1.4-3.2-2.8-3.9C65.4,79.4,66.9,81.3,67.9,83.6"/>
<path fill="#B1D055" d="M71.6,84.1c0,0-5.1-0.8-2.1-7.2c0,0,5.2,1.2,2.5,6.9c0,0-0.6-3.8-1.9-5C70.1,78.8,71.2,81.3,71.6,84.1"/>
<path fill="#B1D055" d="M73,84.4c0,0-1.8-5.5,6.1-5.8c0,0,1.4,5.7-5.6,6c0,0,3.4-2.6,4-4.4C77.5,80.3,75.6,82.6,73,84.4"/>
<path fill="#B1D055" d="M25.8,78.5c0,0-4.6,5.5-10-2.7c0,0,5.1-5.2,9.9,2c0,0-4.9-2-7.2-1.4C18.6,76.5,22.2,77,25.8,78.5"/>
<path fill="#66933D" d="M74.7,96.1c0,0,4.1-3.7,7.4,3c0,0-4.4,3.5-7.4-2.5c0,0,3.6,2,5.4,1.8C80.1,98.4,77.3,97.6,74.7,96.1"/>
<path fill="#66933D" d="M77.9,77c0,0-2.6-6-9.4-0.3c0,0,3.1,5.9,9.2,0.8c0,0-4.8,0.4-6.6-0.7C71.1,76.9,74.4,77.4,77.9,77"/>
<path fill="#42862F" d="M73.8,72.8c0,0-0.9-7-9.7-3.1c0,0,1.5,7.1,9.3,3.7c0,0-5.2-1-6.7-2.7C66.7,70.6,70,72.2,73.8,72.8"/>
<path fill="#B1D055" d="M67.8,66.8c0,0-5.3-3.2-7.4,5c0,0,5.6,2.8,7.5-4.4c0,0-3.5,3-5.5,3.1C62.5,70.5,65.3,69,67.8,66.8"/>
<path fill="#42862F" d="M60.8,66c0,0-5.1-2.9-6.9,5c0,0,5.5,2.5,7-4.5c0,0-3.2,3-5.1,3.2C55.8,69.8,58.5,68.3,60.8,66"/>
<path fill="#66933D" d="M55.3,65.4c0,0-6-6.4-12.1,4c0,0,6.6,6,12.1-3.2c0,0-5.9,2.8-8.7,2.2C46.5,68.4,51,67.6,55.3,65.4"/>
<path fill="#42862F" d="M45.8,59.6c0,0-5.2-3.2-7.3,4.8c0,0,5.5,2.8,7.4-4.3c0,0-3.4,2.9-5.4,3C40.5,63.2,43.3,61.8,45.8,59.6"/>
<path fill="#42862F" d="M38.5,58.4c0,0-5.6-4.4-9.2,4.7c0,0,6.1,4,9.3-4c0,0-4.4,3-6.8,2.8C31.9,61.8,35.3,60.6,38.5,58.4"/>
<path fill="#B1D055" d="M35.9,55.9c0,0,2.9-6.6-6.9-7.9c0,0-2.4,7,6.3,8.1c0,0-4-3.6-4.5-5.9C30.8,50.2,32.9,53.3,35.9,55.9"/>
<path fill="#66933D" d="M40.1,55.5c0,0,3.9-3.9-2.7-7.5c0,0-3.7,4.3,2.2,7.5c0,0-1.8-3.7-1.5-5.5C38.1,50.1,38.7,52.9,40.1,55.5"/>
<path fill="#66933D" d="M33.1,56.7c0,0-4.5-7-11.9,1.6c0,0,5.1,6.8,11.8-0.9c0,0-6,1.6-8.5,0.5C24.4,58,28.7,58,33.1,56.7"/>
<path fill="#42862F" d="M41.2,47.4c0,0,1.2-5.8-6.9-5.1c0,0-0.7,6,6.4,5.4c0,0-3.8-2.2-4.6-3.9C36.2,43.8,38.4,45.9,41.2,47.4"/>
<path fill="#42862F" d="M41.1,41.8c0,0,1.7-5.9-6.7-5.9c0,0-1.3,6.1,6.2,6.1c0,0-3.8-2.6-4.4-4.5C36.2,37.6,38.3,40,41.1,41.8"/>
<path fill="#66933D" d="M42.2,39c0,0,6.8-2.9,0.4-10.6c0,0-6.6,3.5-1,10.4c0,0-0.5-5.4,0.8-7.5C42.4,31.2,41.8,35,42.2,39"/>
<path fill="#66933D" d="M42.8,42c0,0,6,4.5,9.5-5.1c0,0-6.4-4-9.6,4.4c0,0,4.5-3.2,7-3.1C49.7,38.2,46.1,39.5,42.8,42"/>
<path fill="#B1D055" d="M43.2,44.4c0,0,0.5,7.9,10.6,4.1c0,0-1.2-7.9-10.1-4.6c0,0,5.7,1.4,7.3,3.4C51,47.2,47.4,45.3,43.2,44.4"/>
<path fill="#42862F" d="M51.4,57.5c0,0,6.1-2.7,0.2-9.6c0,0-6,3.2-0.8,9.4c0,0-0.5-4.9,0.6-6.8C51.5,50.5,51,53.9,51.4,57.5"/>
<path fill="#2A0F11" d="M89.2,100c-0.7-0.6-1.3-1.1-1.7-1.5c0,0-0.1-0.1-0.1-0.1c0.1,0.1,0.2,0.1,0.3,0.2c0,0,0.1,0.1,0.1,0.1
	c0,0,0,0,0,0c0,0,0,0,0.1,0.1c0.1,0.1,0.3,0.2,0.4,0.4C88.6,99.4,88.9,99.7,89.2,100"/>
<path fill="#2A0F11" d="M61.1,56c-0.3,0.6-0.6,1.1-1,1.6c-0.1-0.7-0.2-1.4-0.2-2.3C60.6,55.7,61.1,56,61.1,56"/>
<path fill="#2A0F11" d="M62.9,83.7L62.9,83.7C62.9,83.8,62.9,83.8,62.9,83.7C62.9,83.7,62.9,83.7,62.9,83.7"/>
<path fill="#2A0F11" d="M69.6,88.5c-0.9-0.2-2-0.4-3.2-0.5c0-0.1,0-0.2,0-0.3C66.4,87.7,68.1,87.5,69.6,88.5"/>
<path fill="#2A0F11" d="M72.1,27.2c0,1.4-0.2,2.6-0.5,3.5c-0.2-1.1-0.3-2.3-0.3-3.6C71.8,27.1,72.1,27.2,72.1,27.2"/>
<path fill="#2A0F11" d="M82.2,35.6L82.2,35.6c-0.1,0.3-0.3,0.5-0.4,0.7l0.3-2.9C82.1,33.4,82.1,34.3,82.2,35.6"/>
<path fill="#2A0F11" d="M86.1,83.7c0,0,0,0.2-0.1,0.4c-0.4-0.3-0.8-0.7-1.2-1.1C85.2,83.2,85.7,83.4,86.1,83.7"/>
<path fill="#2A0F11" d="M87.6,98.6c0,0-0.1-0.1-0.1-0.1c0,0-0.1-0.1-0.1-0.1C87.4,98.4,87.5,98.5,87.6,98.6"/>
<path fill="#2A0F11" d="M89.7,87.6c-0.4-0.4-0.8-0.8-1.2-1.2c0,0-0.1-0.1-0.1-0.1c-0.4-0.4-0.9-0.8-1.3-1.3c0.8-0.2,1.8-0.4,3.1-0.4
	C90.2,84.7,90.4,86.2,89.7,87.6"/>
<path fill="#2A0F11" d="M97.8,73.5c-0.1,0.2-0.2,0.5-0.4,0.7c-0.3-0.4-0.6-0.9-1-1.5C97.3,73.1,97.8,73.5,97.8,73.5"/>
<path fill="#2A0F11" d="M102.3,58.5c-0.1,0-0.2,0-0.3,0c-0.5-1.4-0.7-2.7-0.8-3.8C102.5,56.4,102.3,58.5,102.3,58.5"/>
<path fill="#2A0F11" d="M109,74.3c-0.1,0.6-0.2,1-0.3,1.4c0-0.5,0-1,0.1-1.5C108.9,74.2,109,74.3,109,74.3"/>
<path fill="#2A0F11" d="M110,27.3c-0.5-0.6-1.1-1.1-1.8-1.6c0,0-0.1-0.1-0.1-0.1c-0.5-0.4-1.1-0.7-1.7-1c0,0,0,0,0,0
	c-8.3-3.9-7.7-9.1-7.7-9.1s1,5.1,10.6,7.3c0.1,0.1,0.1,0.2,0.2,0.2c0,0,0.1,0.1,0.1,0.1c0,0,0.1,0.1,0.1,0.1h0
	C110.1,25,110.2,26.3,110,27.3"/>
<path fill="#2A0F11" d="M112.8,54.1c-0.3,2.1-0.9,3.4-1.6,4.2c0.3-1.4,0.6-2.9,0.8-4.4C112.6,54,112.8,54.1,112.8,54.1"/>
<path fill="#2A0F11" d="M116.9,43.1c-3.3-1.4-2.4-5-2.4-5c0.9,0,1.6,0.1,2.2,0.3c0.1,0.8,0.1,1.5,0.1,2.2c0,0.2,0,0.3,0,0.5
	C116.9,41.8,116.9,42.5,116.9,43.1"/>
<path fill="#2A0F11" d="M125.2,48.9c-0.4,0-0.9-0.1-1.2-0.2c0-0.4,0-0.8,0-1.2v0c0,0,0-0.1,0-0.1c0.1-0.6,0.2-1.3,0.3-1.9
	C125.8,46.8,125.2,48.9,125.2,48.9"/>
<path fill="#2A0F11" d="M126.9,39.7c-0.4,1.9-1.1,3-1.9,3.6C125.7,41.8,126.4,40.5,126.9,39.7"/>
<path fill="#2A0F11" d="M134.1,35.8c-0.2,0.6-0.5,1.2-0.8,1.8v0c-0.1,0.1-0.1,0.3-0.2,0.4l0,0c-0.6,1.1-1.1,2-1.6,2.7
	c-1.6-3.4,1.5-5.8,1.5-5.8C133.4,35.2,133.7,35.5,134.1,35.8"/>
<path fill="#2A0F11" d="M135.7,42.2c-0.3,0.4-0.5,0.7-0.8,1C135.1,42.9,135.4,42.6,135.7,42.2"/>
<path fill="#42862F" d="M86.1,83.7c0,0,0,0.2-0.1,0.4c-0.6,1.4-2.9,5.5-8.9,2.3c0,0,4.9-0.5,6.5-2c0,0-3.2,1.2-6.9,1.5
	c0,0,1.2-5.8,8-2.8C85.2,83.2,85.7,83.4,86.1,83.7"/>
<path fill="#66933D" d="M89.7,87.6c-0.6,1.2-2,2.2-4.9,2.2c0,0,2.8-1.9,3.7-3.4c0.1-0.1,0.1-0.2,0.1-0.3c0,0-0.1,0.1-0.2,0.2
	c-0.6,0.6-2.1,2.1-4,3.3c0,0-0.9-3.4,2.7-4.5c0.8-0.2,1.8-0.4,3.1-0.4C90.2,84.7,90.4,86.2,89.7,87.6"/>
<path fill="#66933D" d="M62.5,55.8c-0.4,0.7-0.7,1.3-1.1,1.9c-4.2,5.9-8.4,1.8-8.4,1.8c3.4-1.9,6.9-2.8,6.9-2.8
	c-2.3-0.4-6.9,2.1-6.9,2.1c2.8-5.3,6.3-4.7,8.2-3.8C62,55.3,62.5,55.8,62.5,55.8"/>
<path fill="#66933D" d="M59.9,52.7c0,0,5.6-4.4-2.3-10c0,0-5.3,4.9,1.7,9.9c0,0-1.8-4.9-1.1-7.2C58.1,45.4,58.5,49.1,59.9,52.7"/>
<path fill="#B1D055" d="M60.8,54c0,0,5.5,4.5,9.3-4.4c0,0-5.9-4.2-9.4,3.8c0,0,4.5-2.8,6.8-2.6C67.5,50.6,64.1,51.8,60.8,54"/>
<path fill="#42862F" d="M63.1,59c0,0,4.5,3.8,7.8-3.5c0,0-4.9-3.5-7.8,3c0,0,3.8-2.3,5.7-2.1C68.8,56.3,65.9,57.2,63.1,59"/>
<path fill="#B1D055" d="M74.8,64.2c0,0,7.2-0.4,3.9-9.7c0,0-7.3,1-4.3,9.2c0,0,1.4-5.2,3.2-6.6C77.5,57.1,75.7,60.3,74.8,64.2"/>
<path fill="#42862F" d="M82.9,69.6c0,0,3.3-7.2-7.4-8.8c0,0-2.8,7.6,6.7,9c0,0-4.3-4-4.8-6.6C77.4,63.3,79.6,66.8,82.9,69.6"/>
<path fill="#42862F" d="M97.8,73.5c-0.1,0.2-0.2,0.5-0.4,0.7c-4.4,7.8-9.3,3.1-9.3,3.1c3.4-2,7-2.8,7-2.8c-2.3-0.4-7,2.2-7,2.2
	c2.8-5.4,6.5-4.8,8.4-3.9C97.3,73.1,97.8,73.5,97.8,73.5"/>
<path fill="#B1D055" d="M85.3,68c0,0-0.9,7.3,9,5.6c0,0,0.3-7.5-8.5-6c0,0,4.9,2.3,6.1,4.4C91.9,72,89,69.6,85.3,68"/>
<path fill="#66933D" d="M84.5,66.8c0,0,6.3-0.1,3.8-8.4c0,0-6.4,0.6-4.2,7.9c0,0,1.4-4.5,3.1-5.7C87.2,60.6,85.5,63.4,84.5,66.8"/>
<path fill="#66933D" d="M78.8,50.2c0,0-3.9-7-11.6,0.8c0,0,4.6,6.8,11.4-0.1c0,0-5.9,1.1-8.2,0C70.4,50.9,74.5,51.1,78.8,50.2"/>
<path fill="#42862F" d="M73.3,44.8c0,0-2.5-5.8-9.2-0.3c0,0,3,5.7,9,0.8c0,0-4.7,0.4-6.5-0.7C66.6,44.6,69.9,45.2,73.3,44.8"/>
<path fill="#66933D" d="M67.7,39.6c0,0-3.8-6.3-10.5,1.2c0,0,4.4,6,10.4-0.5c0,0-5.3,1.2-7.5,0.3C60,40.6,63.8,40.7,67.7,39.6"/>
<path fill="#66933D" d="M61.2,35.4c0,0-4.7-4.3-8.5,3.5c0,0,5.1,4,8.5-3c0,0-4.1,2.3-6.2,2.1C55.1,38,58.2,37.2,61.2,35.4"/>
<path fill="#B1D055" d="M63.5,33.2c0,0,6.1-5.5-3.5-11.4c0,0-5.8,6.1,2.8,11.3c0,0-2.5-5.6-1.9-8.2C60.8,24.9,61.5,29.1,63.5,33.2"
	/>
<path fill="#42862F" d="M59.2,32.4c0,0,0.1-8-10.5-5c0,0,0.6,8.1,9.9,5.5c0,0-5.6-1.9-7.1-4C51.6,28.9,55,31.1,59.2,32.4"/>
<path fill="#42862F" d="M71.1,27.1c0,0,0.1-8-10.5-5c0,0,0.6,8.2,10,5.5c0,0-5.7-1.9-7.2-4C63.4,23.5,66.9,25.8,71.1,27.1"/>
<path fill="#66933D" d="M71.7,21.5c0,0,5-3.8-1.9-8.9c0,0-4.8,4.3,1.3,8.8c0,0-1.5-4.4-0.9-6.4C70.2,15,70.4,18.3,71.7,21.5"/>
<path fill="#42862F" d="M73.3,24.2c0,0,7.5,3.2,8.8-7.9c0,0-7.9-2.6-9,7.2c0,0,4-4.6,6.6-5.1C79.6,18.4,76.1,20.8,73.3,24.2"/>
<path fill="#42862F" d="M73.9,27.2c0,0,1.7,7.7,11.1,2.5c0,0-2.3-7.7-10.7-3.1c0,0,5.8,0.6,7.7,2.3C82,28.9,78.2,27.6,73.9,27.2"/>
<path fill="#66933D" d="M82.9,32.4c0,0,6.4,2.4,7-6.9c0,0-6.7-1.9-7.2,6.3c0,0,3.1-4,5.3-4.5C87.9,27.3,85.1,29.4,82.9,32.4"/>
<path fill="#B1D055" d="M83,33.5c0,0-1.7,5.3,5.9,5.5c0,0,1.3-5.5-5.5-5.7c0,0,3.4,2.4,3.9,4.2C87.4,37.5,85.5,35.3,83,33.5"/>
<path fill="#42862F" d="M85,46.1c0,0,6.5,2.3,7-7.1c0,0-6.7-1.8-7.2,6.5c0,0,3.1-4,5.3-4.6C90,40.9,87.2,43,85,46.1"/>
<path fill="#66933D" d="M92.4,39.4c0,0,3.2-6.3-6.3-8c0,0-2.7,6.6,5.7,8.2c0,0-3.7-3.7-4-6C87.8,33.6,89.6,36.8,92.4,39.4"/>
<path fill="#66933D" d="M94.3,39.6c0,0,6.7,1.5,6-7.8c0,0-6.9-1-6.3,7.3c0,0,2.6-4.4,4.6-5.2C98.6,33.8,96.1,36.3,94.3,39.6"/>
<path fill="#B1D055" d="M94.3,41.2c0,0-0.4,6.5,8.2,4.5c0,0-0.1-6.6-7.8-4.9c0,0,4.5,1.8,5.6,3.6C100.4,44.4,97.7,42.4,94.3,41.2"/>
<path fill="#66933D" d="M105.2,60.7c-0.1,0-0.2,0-0.4,0c-12,1.1-10.4-7.6-10.4-7.6c4.4,2.3,7.9,5.4,7.9,5.4
	c-1.3-2.7-7.2-5.9-7.2-5.9c4.8-0.5,7.3,1,8.6,2.8C105.5,57.8,105.2,60.7,105.2,60.7"/>
<path fill="#42862F" d="M102.4,48.6c0,0,6.6-0.6,3.2-9c0,0-6.6,1.1-3.7,8.6c0,0,1.1-4.8,2.7-6.2C104.7,42,103.1,45,102.4,48.6"/>
<path fill="#66933D" d="M102.7,51.2c0,0,3.8,5.4,9.4-1.7c0,0-4.3-5.2-9.3,1.1c0,0,4.7-1.4,6.7-0.7C109.6,49.8,106.2,50,102.7,51.2"
	/>
<path fill="#66933D" d="M112.5,45c0,0,0.4-6.6-8.5-4.5c0,0,0.2,6.7,8,4.9c0,0-4.6-1.8-5.7-3.6C106.3,41.8,109.1,43.8,112.5,45"/>
<path fill="#42862F" d="M108.8,37.3c0,0-2.4-5.4-8.5-0.2c0,0,2.8,5.3,8.3,0.7c0,0-4.3,0.4-6-0.6C102.7,37.2,105.7,37.7,108.8,37.3"
	/>
<path fill="#B1D055" d="M105,33.5c0,0,1.1-7-8.5-5.8c0,0-0.6,7.2,8,6.2c0,0-4.7-2.4-5.7-4.5C98.7,29.4,101.5,31.8,105,33.5"/>
<path fill="#66933D" d="M111.6,26.1c-0.8,5-5.6,4.8-5.6,4.8c1-3.1,2.6-5.8,3.3-6.9c0.2-0.4,0.4-0.6,0.4-0.6
	c-0.2,0.1-0.4,0.3-0.6,0.5c-1.9,1.9-3.6,6.5-3.6,6.5c-1.1-4.1-0.1-6.5,1.3-7.8c1.6-1.5,3.7-1.8,4.2-1.9c0.1,0,0.1,0,0.1,0
	c0,0.1,0,0.1,0,0.2h0C111.7,23.1,111.8,24.8,111.6,26.1"/>
<path fill="#42862F" d="M110.6,35.1c0,0,6.1-2.4,0.6-9.4c0,0-6,2.9-1.1,9.2c0,0-0.3-4.8,0.9-6.6C110.9,28.2,110.3,31.6,110.6,35.1"
	/>
<path fill="#66933D" d="M103.9,28.9c0,0,4.1-6.4-5.8-9.2c0,0-3.6,6.8,5.1,9.4c0,0-3.5-4.3-3.7-6.8C99.6,22.3,101.2,25.8,103.9,28.9"
	/>
<path fill="#B1D055" d="M99.1,18.7c0,0-3.2-8.2-12.7-0.8c0,0,3.9,8.1,12.4,1.5c0,0-6.5,0.4-8.9-1.2C89.8,18.3,94.3,19.1,99.1,18.7"
	/>
<path fill="#42862F" d="M100,16.7c0,0,6.3,1.1,5.3-7.6c0,0-6.5-0.6-5.6,7.1c0,0,2.2-4.2,4.1-5.1C103.8,11.1,101.5,13.5,100,16.7"/>
<path fill="#66933D" d="M98.9,15.1c0,0,3.7-6.9-6.7-9.1c0,0-3.2,7.3,6,9.3c0,0-4-4.2-4.3-6.8C94,8.5,95.9,12.1,98.9,15.1"/>
<path fill="#42862F" d="M116,17.4c0,0,7.6,4.9,11-7c0,0-8.1-4.3-11.2,6.1c0,0,5.2-4.2,8.1-4.4C123.9,12.3,119.7,14.2,116,17.4"/>
<path fill="#42862F" d="M116.4,18.6c0,0-2.7,4.7,4.5,6.3c0,0,2.3-5-4-6.5c0,0,2.7,2.9,2.9,4.7C119.8,23.1,118.5,20.7,116.4,18.6"/>
<path fill="#66933D" d="M116.1,31.9c0,0,5.2,1.4,5-6c0,0-5.4-1-5.2,5.5c0,0,2.2-3.3,3.8-4C119.7,27.5,117.6,29.3,116.1,31.9"/>
<path fill="#42862F" d="M116,39.9c-0.7-0.7-1.1-1.2-1.1-1.2c0.2,0.6,0.6,1.2,1.1,1.8c1.4,1.6,3.5,3.2,3.5,3.2
	c-1.4-0.1-2.6-0.3-3.5-0.7c-4.1-1.7-3-6.2-3-6.2c1.1,0,2,0.1,2.8,0.3c5.9,1.4,4.3,6.3,4.3,6.3C118.4,42.2,116.9,40.8,116,39.9"/>
<path fill="#B1D055" d="M121.1,40c0,0,6.1-2.9-0.1-9.8c0,0-5.9,3.5-0.5,9.5c0,0-0.7-5,0.4-6.9C120.9,32.9,120.5,36.4,121.1,40"/>
<path fill="#66933D" d="M128.2,37.6c-0.1,0.5-0.1,0.9-0.2,1.3l0,0c-0.4,2.3-1.3,3.6-2.2,4.3v0c-2,1.6-4.4,0.5-4.4,0.5
	c2.2-2.6,4.8-4.4,4.9-4.5c-2,0.4-5.1,4-5.1,4C122.1,35.5,128.2,37.6,128.2,37.6"/>
<path fill="#42862F" d="M127.8,37.4c0,0,5.3-4.2-2.3-9.5c0,0-5,4.7,1.6,9.4c0,0-1.7-4.7-1.1-6.8C126.1,30.5,126.4,34,127.8,37.4"/>
<path fill="#66933D" d="M131.8,29.4c0,0,2.5-6.7-7.2-7.3c0,0-2,7,6.6,7.6c0,0-4.1-3.3-4.7-5.5C126.5,24.1,128.7,27,131.8,29.4"/>
<path fill="#42862F" d="M131.5,21.8c0,0,2.6-6.9-7.5-7.6c0,0-2.1,7.3,6.9,7.9c0,0-4.3-3.4-4.9-5.8C126,16.3,128.3,19.4,131.5,21.8"
	/>
<path fill="#B1D055" d="M132.9,19.2c0,0,6.2-2.2,0.9-9.4c0,0-6.1,2.7-1.4,9.2c0,0-0.1-4.9,1.1-6.6C133.4,12.3,132.7,15.7,132.9,19.2
	"/>
<path fill="#66933D" d="M134,22c0,0,6.3,3.6,8.5-6.1c0,0-6.7-3.1-8.7,5.5c0,0,4-3.7,6.3-3.9C140.2,17.4,136.9,19.2,134,22"/>
<path fill="#42862F" d="M135.9,28.6c0,0,5.4,3.6,8.1-4.9c0,0-5.8-3.3-8.2,4.3c0,0,3.8-3,6-3C141.8,25,138.7,26.4,135.9,28.6"/>
<path fill="#66933D" d="M135.5,33.8c0,0,4.7,5.2,9.7-3c0,0-5.2-4.9-9.6,2.4c0,0,4.7-2.2,7-1.7C142.5,31.5,139,32.1,135.5,33.8"/>
<path fill="#B1D055" d="M135.7,42.2C135.7,42.2,135.7,42.2,135.7,42.2c-0.3,0.4-0.6,0.7-0.8,1c-0.3,0.3-0.5,0.4-0.5,0.4
	c-0.8-2.6-1-5.1-1.1-6v0c0-0.2,0-0.3,0-0.3c-0.1,0.2-0.1,0.4-0.2,0.7l0,0c-0.3,2.1,0.7,5.5,0.7,5.5c-1.2-1-1.9-1.9-2.3-2.8
	c-1.6-3.4,1.5-5.8,1.5-5.8c0.4,0.3,0.7,0.6,1.1,1C136.9,38.7,136.5,40.9,135.7,42.2"/>
<path fill="#42862F" d="M143.5,35.1c0,0,7.1-0.5,3.6-9.7c0,0-7.2,1.1-4.1,9.2c0,0,1.3-5.2,3.1-6.6C146.1,28.1,144.3,31.3,143.5,35.1
	"/>
<path fill="#66933D" d="M149,32.5c0,0,6.1,1.1,5.2-7.2c0,0-6.2-0.7-5.5,6.8c0,0,2.2-4,4-4.9C152.7,27.2,150.5,29.5,149,32.5"/>
<path fill="#B1D055" d="M148.7,34.9c0,0,2,6.1,9.2,1.1c0,0-2.5-6-9-1.6c0,0,4.8,0,6.5,1.2C155.4,35.6,152.2,34.8,148.7,34.9"/>
<path fill="#42862F" d="M146.5,36.3c0,0-5.3,4.7,2.9,9.8c0,0,5-5.2-2.2-9.8c0,0,2.1,4.8,1.5,7.1C148.6,43.4,148.1,39.8,146.5,36.3"
	/>
<path fill="#B1D055" d="M138.5,45.2c0,0,3.9,5.9,10.1-1.5c0,0-4.4-5.7-10,0.8c0,0,5.1-1.4,7.2-0.5C145.8,44.1,142.2,44.1,138.5,45.2
	"/>
<path fill="#66933D" d="M135.9,59.3c0,0,6.4,3,7.9-6.5c0,0-6.7-2.6-8.1,5.9c0,0,3.6-3.8,5.9-4.2C141.5,54.5,138.5,56.4,135.9,59.3"
	/>
<path fill="#42862F" d="M137.2,61c0,0-1.8,6.9,7.9,6.5c0,0,1.3-7.1-7.3-6.9c0,0,4.4,2.8,5.2,5C143,65.7,140.5,63,137.2,61"/>
<path fill="#42862F" d="M132.7,87c0,0,6.9-1.5,2.3-10c0,0-6.9,2.1-2.8,9.6c0,0,0.5-5.2,2.1-6.9C134.2,79.7,133,83.1,132.7,87"/>
<path fill="#66933D" d="M142.9,81.6c0,0,5.7-4.3-2.1-10c0,0-5.4,4.8,1.5,9.9c0,0-1.7-5-1-7.2C141.3,74.3,141.5,77.9,142.9,81.6"/>
<path fill="#B1D055" d="M147.6,68.6c0,0,2.9-6.5-6.7-7.7c0,0-2.4,6.8,6.1,8c0,0-3.9-3.5-4.4-5.8C142.7,63,144.7,66.1,147.6,68.6"/>
<path fill="#42862F" d="M149.3,61.3c0,0,6.8-4.8-2.2-11.8c0,0-6.5,5.4,1.4,11.7c0,0-1.8-5.9-0.9-8.5C147.6,52.7,147.9,57,149.3,61.3
	"/>
<path fill="#B1D055" d="M154.7,51c0,0,2.2-6-6.6-6.5c0,0-1.7,6.3,6,6.8c0,0-3.8-2.9-4.3-4.9C149.9,46.3,151.9,48.9,154.7,51"/>
<path fill="#42862F" d="M156.6,47.5c0,0,8.4,2.4,8.2-9.6c0,0-8.7-1.7-8.6,8.9c0,0,3.6-5.4,6.3-6.4C162.5,40.4,159.1,43.4,156.6,47.5
	"/>
<path fill="#B1D055" d="M165,49.2c0,0,11-1.6,4.7-15.4c0,0-11.1,2.5-5.5,14.8c0,0,1.4-8.1,4.1-10.6C168.3,38,165.9,43.2,165,49.2"/>
<path fill="#66933D" d="M171.4,48.2c0,0,9.6,1.9,8.4-11.4c0,0-9.9-1.2-8.9,10.7c0,0,3.6-6.4,6.5-7.6
	C177.4,39.7,173.9,43.4,171.4,48.2"/>
<path fill="#66933D" d="M154.2,31.8c0,0,4.7,6.5,11.4-2.2c0,0-5.3-6.2-11.3,1.4c0,0,5.7-1.8,8.2-1C162.5,30.1,158.3,30.3,154.2,31.8
	"/>
<path fill="#42862F" d="M170.9,50.3c0,0-0.2,7,9.1,4.6c0,0-0.3-7.1-8.6-5c0,0,4.9,1.8,6.2,3.7C177.5,53.6,174.5,51.6,170.9,50.3"/>
<path fill="#B1D055" d="M164.9,53c0,0-0.4,5.8,7.4,4.1c0,0-0.1-5.9-7-4.4c0,0,4,1.6,5,3.3C170.3,55.9,167.9,54.1,164.9,53"/>
<path fill="#B1D055" d="M154.8,62.2c0,0,3.8,5.6,9.6-1.5c0,0-4.3-5.4-9.5,0.9c0,0,4.8-1.4,6.9-0.6C161.8,61,158.3,61.1,154.8,62.2"
	/>
<path fill="#42862F" d="M157.9,79.6c0,0,3.3-3-1.9-6.2c0,0-3.1,3.3,1.5,6.1c0,0-1.4-3-1.1-4.4C156.4,75.1,156.8,77.4,157.9,79.6"/>
<path fill="#42862F" d="M150.3,84.1c0,0-0.8,7.2,8.9,5.4c0,0,0.2-7.4-8.4-5.9c0,0,4.9,2.2,6,4.3C156.9,88,153.9,85.6,150.3,84.1"/>
<path fill="#42862F" d="M143.2,90c0,0-6.7,2.8-0.4,10.5c0,0,6.5-3.4,1-10.2c0,0,0.4,5.4-0.8,7.4C143,97.6,143.6,94,143.2,90"/>
<path fill="#66933D" d="M151.2,93.2c0,0-3.9,4.3,3.2,7.7c0,0,3.6-4.6-2.7-7.7c0,0,2.1,3.7,1.9,5.6C153.6,98.8,152.9,95.9,151.2,93.2
	"/>
<path fill="#B1D055" d="M154.2,92.7c0,0,2.2,5.3,8.3,0.4c0,0-2.6-5.3-8.1-0.9c0,0,4.3-0.3,5.8,0.7C160.3,93,157.4,92.5,154.2,92.7"
	/>
<path fill="#42862F" d="M164,69.6c0,0,3.3-5.4-5.1-7.7c0,0-2.9,5.8,4.5,7.8c0,0-3.1-3.6-3.2-5.7C160.3,64,161.7,67,164,69.6"/>
<path fill="#B1D055" d="M163,71.7c0,0-0.8-5.4-7.5-2.3c0,0,1.2,5.4,7.2,2.7c0,0-4-0.7-5.2-2C157.5,70.1,160.1,71.3,163,71.7"/>
<path fill="#66933D" d="M165.8,70.7c0,0,5.4,0.3,3.7-6.9c0,0-5.5,0.1-4.1,6.5c0,0,1.5-3.7,3-4.7C168.4,65.6,166.8,67.9,165.8,70.7"
	/>
<path fill="#42862F" d="M164.9,73c0,0,3.7,5.3,9.3-1.7c0,0-4.2-5.1-9.2,1.1c0,0,4.6-1.4,6.6-0.7C171.6,71.7,168.3,71.9,164.9,73"/>
<path fill="#66933D" d="M176.3,63.5c0,0,3.9-5.2-4.4-8.3c0,0-3.6,5.6,3.8,8.4c0,0-2.8-4-2.7-6.1C173.1,57.5,174.2,60.7,176.3,63.5"
	/>
<path fill="#B1D055" d="M177.9,62.8c0,0,6.4,4.4,9.7-5.7c0,0-6.9-4-9.8,5c0,0,4.6-3.5,7.1-3.6C184.9,58.5,181.2,60.1,177.9,62.8"/>
<path fill="#66933D" d="M176.8,65c0,0,0,5.5,7.3,3.3c0,0-0.5-5.6-6.9-3.7c0,0,3.9,1.3,5,2.7C182.2,67.3,179.8,65.8,176.8,65"/>
<path fill="#B1D055" d="M180.6,75.6c0,0,7.1-1.4,2.5-10.2c0,0-7.1,2-3.1,9.8c0,0,0.7-5.3,2.3-7C182.4,68.2,181,71.6,180.6,75.6"/>
<path fill="#66933D" d="M186.3,73.6c0,0,7.1-0.5,3.7-9.6c0,0-7.2,1.1-4.2,9.2c0,0,1.3-5.1,3.1-6.6C188.8,66.6,187.1,69.8,186.3,73.6
	"/>
<path fill="#42862F" d="M185.9,75.7c0,0,1.3,7.1,10.1,2.6c0,0-1.9-7.1-9.7-3.2c0,0,5.3,0.7,7,2.4C193.3,77.5,189.9,76.1,185.9,75.7"
	/>
<path fill="#66933D" d="M183.3,76.7c0,0-3.6,5.3,4.7,7.9c0,0,3.2-5.6-4.1-8c0,0,2.9,3.7,2.9,5.8C186.8,82.4,185.5,79.4,183.3,76.7"
	/>
<path fill="#B1D055" d="M178.9,87.4c0,0,3.6,5.8,9.8-1.2c0,0-4.1-5.6-9.7,0.5c0,0,4.9-1.2,7-0.3C186.1,86.5,182.5,86.4,178.9,87.4"
	/>
<path fill="#42862F" d="M177.4,88.9c0,0-6,3.2,0.5,9.8c0,0,5.8-3.7,0.1-9.6c0,0,0.9,5-0.1,7C177.9,96,178.1,92.5,177.4,88.9"/>
<path fill="#66933D" d="M180.6,90.3c0,0-1,7.4,9.1,5.8c0,0,0.4-7.6-8.6-6.3c0,0,5,2.4,6.1,4.6C187.3,94.5,184.3,92,180.6,90.3"/>
<path fill="#66933D" d="M175.3,87.9c0,0-3.7-4.6-8.3,2.1c0,0,4.1,4.4,8.2-1.5c0,0-4.1,1.6-6,1C169.3,89.5,172.3,89.1,175.3,87.9"/>
<path fill="#66933D" d="M155,45.6c0,0,4.8-3.3-1.5-8.3c0,0-4.6,3.8,0.9,8.2c0,0-1.3-4.1-0.6-5.9C153.9,39.6,154,42.6,155,45.6"/>
<path fill="#66933D" d="M117.5,53.7c0,0,4.5,5.3,9.6-2.6c0,0-5-5-9.6,2c0,0,4.7-1.9,6.9-1.4C124.5,51.7,120.9,52.2,117.5,53.7"/>
<path fill="#66933D" d="M114.7,63.6c0,0,6.6,4.2,9.5-6c0,0-7-3.7-9.6,5.3c0,0,4.5-3.7,7-3.8C121.6,59.1,118,60.8,114.7,63.6"/>
<path fill="#B1D055" d="M124.1,74.2c0,0,5.6-5.7-4-10.9c0,0-5.3,6.2,3.3,10.9c0,0-2.7-5.3-2.3-7.9C121.1,66.4,122,70.4,124.1,74.2"
	/>
<path fill="#42862F" d="M129.3,62.8c0,0,1.3-7.9-9.5-6.6c0,0-0.7,8.1,8.9,7c0,0-5.3-2.8-6.4-5.1C122.3,58.1,125.3,60.9,129.3,62.8"
	/>
<path fill="#42862F" d="M127.1,50.9c-0.7-0.1-1.2-0.2-1.8-0.3c-5.9-1.3-4.1-6-4.1-6c2.1,1.6,3.6,3.6,4.1,4.3v0
	c0.1,0.1,0.2,0.2,0.2,0.2c0-0.1-0.1-0.3-0.2-0.4c-0.8-1.8-3.7-4.3-3.7-4.3c2,0.2,3.3,0.8,4.1,1.5C128.1,47.9,127.1,50.9,127.1,50.9"
	/>
<path fill="#B1D055" d="M104.4,20.4c0,0,5.5,2.2,6.3-5.9c0,0-5.8-1.8-6.5,5.4c0,0,2.8-3.4,4.7-3.8C108.9,16.1,106.4,17.9,104.4,20.4
	"/>
<path fill="#66933D" d="M114,17.8c0,0,2.9-6.7-7-7.9c0,0-2.4,7,6.4,8.1c0,0-4.1-3.6-4.5-5.9C108.9,12.1,111,15.3,114,17.8"/>
<path fill="#42862F" d="M112.8,54.1c-0.3,2.1-0.9,3.4-1.6,4.2c-1.9,2.3-4.6,1.1-4.6,1.1c1.9-2.3,4.3-3.8,4.4-3.9
	c-1.8,0.4-4.6,3.4-4.6,3.4c0.7-5.2,4.1-5.2,5.6-5v0C112.6,54,112.8,54.1,112.8,54.1"/>
<path fill="#66933D" d="M103.4,72c0,0,6.7,2.1,6.9-7.6c0,0-7-1.6-7.2,7c0,0,3-4.3,5.2-5C108.3,66.5,105.5,68.8,103.4,72"/>
<path fill="#42862F" d="M96.8,62.8c0,0,3.4,6,10-0.8c0,0-4-5.8-9.8,0.2c0,0,5-1,7.1-0.1C104,62.1,100.4,62,96.8,62.8"/>
<path fill="#42862F" d="M93.2,35c0,0,6.4-2.1,1.1-9.7c0,0-6.4,2.7-1.7,9.5c0,0,0-5,1.3-6.8C93.9,27.9,93,31.3,93.2,35"/>
<path fill="#66933D" d="M82.2,35.6L82.2,35.6c-0.1,0.3-0.3,0.5-0.4,0.7c-1.2,1.7-3.3,1.8-3.3,1.8c0.8-3.4,2.4-6.2,2.4-6.2
	c-1.6,1.3-2.8,5.8-2.8,5.8c-1.5-4.2,0-6.2,1.6-7.2c1.1-0.7,2.3-0.9,2.3-0.9c0,0,0,0.1,0,0.1C82.9,32.5,82.8,34.4,82.2,35.6"/>
<path fill="#66933D" d="M67.7,89.5c0,0,2,2.2,3.5,5c0,0-5.5,1-4.9-6.4c0-0.1,0-0.2,0-0.3c0,0,1.7-0.2,3.2,0.8c0,0,0,0,0,0h0
	c1.2,0.8,2.2,2.4,1.9,5.5C71.5,94,69.4,90.3,67.7,89.5"/>
<path fill="#B1D055" d="M72.1,27.2c0,1.4-0.2,2.6-0.5,3.5v0C70.2,35.3,66,34,66,34c1.9-2.9,4.4-5.1,4.4-5.1c-2,0.7-4.7,4.5-4.7,4.5
	c0-3.1,1-4.7,2.2-5.5c0.6-0.4,1.2-0.6,1.8-0.8h0c0.4-0.1,0.8-0.1,1.2-0.1h0.2c0.1,0,0.1,0,0.2,0C71.8,27.1,72.1,27.2,72.1,27.2"/>
<path fill="#2A0F11" d="M174.2,80.6c0,0-2-11.7,3.2-17.9c0,0-3.7,11.3-1.1,16.9L174.2,80.6z"/>
<path fill="#2A0F11" d="M179.8,90.1c-11.2-9.8-29.3-7.2-29.3-7.2c-1.5,2-3.4,3.7-3.4,3.7c1.8,4.2,6.8,6.1,6.8,6.1
	c-4.7,1.2-8.5-4.3-8.5-4.3c-8.9,6.2-18.5,5.8-18.5,5.8c0.3,7.6-2.2,13.5-5.1,17.9c-2.9,4.4-4.6,9.4-4.8,14.7c-0.1,2-0.1,4.2-0.1,6.4
	c0.1,11.9,1.7,17.6,3.1,27.2c2,8.2,9.1,13.9,17.4,20.5c-0.1-0.1-0.8,0-1-0.1c-0.5,0-0.9-0.1-1.4-0.2c-5-0.8-9.8-2.6-14.6-4.1
	c-3.9-1.2-8.1-1.3-12.2-1.3c-3.6,0-7.4,0.3-10.7,1.6c-1.5,0.6-2.8,1.6-4.3,2.1c-0.7,0.2-1.5,0.4-2.2,0.5c-3.4,0.5-6.4-0.6-8.1-1.3
	c0,0-0.1,0-0.1-0.1c0,0-0.1,0-0.1-0.1c0,0-0.1,0-0.1-0.1c-0.1,0-0.2-0.1-0.2-0.1c0,0-0.1,0-0.1,0c-0.1,0-0.1-0.1-0.2-0.1
	c0,0,0,0-0.1,0c0,0-0.1,0-0.1-0.1c-0.1,0-0.1-0.1-0.2-0.1c0,0-0.1,0-0.1,0c12.9-0.7,16.1-11.5,16.3-12.5c0,0,0,0,0,0c0,0,0,0,0,0
	c3.6-15.9,3.7-22.3,3.1-31.8c-0.5-7.4-1.4-12-1.4-12.4c0,0,0,0,0,0c-0.3-2.5-0.8-4.8-1.5-7c-2.2-6.6-6.1-11.2-8.8-13.8l0,0
	c-0.3-0.3-0.6-0.6-0.9-0.9c-0.1-0.1-0.3-0.3-0.4-0.4c0,0,0,0-0.1-0.1c0,0,0,0,0,0c0,0-0.1-0.1-0.1-0.1c-0.1-0.1-0.2-0.1-0.3-0.2
	c0,0,0,0-0.1-0.1c-0.1-0.1-0.1-0.1-0.2-0.2C87,98.1,86.9,98,86.8,98c-0.3-0.2-0.5-0.3-0.5-0.3c-0.6-0.4-1.3-0.9-2-1.3
	C80.2,94,74.9,94.2,71,97c-0.2,0.1-0.3,0.2-0.5,0.4c0,0-0.2-2.5,4.8-5.3c0,0-1.7-2.6-5.7-3.6c0,0,0,0,0,0c-1.5-1-3.2-0.8-3.2-0.8
	c0,0.1,0,0.2,0,0.3c-0.4,0-0.9,0-1.4,0c-0.5,0-0.9,0.1-1.4,0.1c-2.1,0.3-9.3,1.1-14.7,0.9c0,0-3.1,4.4-8.9,3.3c0,0,5.3-1.5,6.5-4.6
	c0,0-0.8-0.9-2.5-2.2c-0.7-0.5-1.5-1.1-2.4-1.7c-3.3-2.2-8.2-4.6-14.5-5.4c0,0,10.9,0.3,17.9,5.8c1.7,1.3,3.8,2.1,5.9,2.1
	c1.7,0.1,3.8,0,5.8-0.5c0,0-4.6-4.1-2.4-9.7c0,0,2,7.7,5.6,7.8c0,0,1.1-0.1,2.9-0.2c0,0,0,0,0,0v0c3.9-0.2,10.8,0,14.4,3.1
	c0.9,0.8,1.9,1.5,3.1,2c0.8,0.3,1.8,0.6,2.8,0.8c1.5,0.2,2.9,0.6,4.3,1.3c4.4,1.9,7.8,5.5,10.2,8.9c-0.7-1.9-1.6-3.6-2.7-5.3
	c-1.4-2.1-3.1-4.5-5.3-6.8c0.7-1.4,0.4-2.9,0.4-2.9c-1.3,0-2.3,0.1-3.1,0.4c-0.4-0.3-0.7-0.7-1.1-1c0.1-0.2,0.1-0.4,0.1-0.4
	c-0.5-0.3-0.9-0.5-1.4-0.7c-2.1-1.9-4.1-3.9-6-6c-2.4-2.8-5.3-6.4-7.5-9.9c-0.5-0.8-1.4-1.3-2.3-1.3c-4.4,0.1-17.8,0-22-6
	c-0.5-0.7-1.2-1.1-2-1.2l-10.8-1.9l10.3-0.9c0,0-4.1-6.9-2.7-16.4c0,0,1.3,23.8,20.4,23.1c0,0-1.3-1.2-2-3.6
	c-0.1-0.4-0.2-0.8-0.3-1.2c0.3-0.5,0.6-1,1-1.6c0,0-0.4-0.4-1.1-0.7c0-0.3,0-0.5,0-0.8c0-0.4,0.1-0.8,0.1-1.2c0,0,0.2,0.6,0.5,1.4
	c0.3,0.7,0.6,1.5,1.1,2.4c1.2,2.4,2.9,5,4.8,5.1h5.4c0.7,0,1.4,0.3,1.7,0.9c0.5,0.8,1.4,2,2.3,3.3c0,0,0,0,0,0
	c0.2,0.2,0.4,0.5,0.6,0.8c2,2.6,4.4,5.3,5.9,5.6c0,0,0.3-3.2,2-6c0,0,0.4,2.9,0.4,5.5c0,1.9,1,3.8,2.6,4.8c2.6,1.6,6.4,4.1,9,6.7
	c0.7,0.7,2,0.5,2.4-0.5c0.3-0.9,0.6-2,0.6-3.4c0-2.2-0.7-4.3-2-6c0.1-0.2,0.2-0.4,0.4-0.7c0,0-0.5-0.4-1.3-0.8
	c-2-3.2-4.7-8.4-5.9-13c-0.5-2-1.8-3.7-3.4-4.9c-3.6-2.6-10.2-6.9-14.6-12c-2-2.3-4.2-4.3-6.7-5.8c-2-1.3-4.4-2.5-6.5-2.9
	c0,0,8-2,16,7c-0.1-0.2-2.7-4.2-3.6-10.3c0.3-0.9,0.5-2.1,0.5-3.5c0,0-0.3-0.1-0.8-0.1c0-1.6,0.1-3.3,0.3-5c0,0,2.5,14.5,9.6,19.1
	l0.6-4.9c0.2-0.2,0.3-0.4,0.4-0.7c0.3,4.4,1.5,14.1,7.5,15.4c0,0,3.5-8.7,3.5-14.5c0,0,1.2,9.3,0.8,17.9c-0.1,2.8,0.6,5.6,2,8
	c1.5,2.5,3.6,5.7,6.1,8.6c1.1,1.3,1.9,2.8,2.3,4.5c0.5,2.1,1,5.1,1.2,8.7v0.6c0,5.4,1.3,10.6,3.8,15.3c0.2-0.2,0.4-0.4,0.6-0.6
	c5.8-6.1,4.1-10,4.1-10.2c0,0,0,0,0,0c-0.1-0.3-0.1-0.6-0.2-0.8c-0.3-1-1-1.9-1.9-2.5c-3.3-2.5-3.6-7.4-3.6-7.4
	c0.1-1,0.1-1.9,0.2-2.8c0,0,0,0,0,0c0.1-0.4,0.3-0.9,0.3-1.4c0,0-0.1,0-0.3-0.1c0-1.5,0-2.8-0.1-3.8c-0.1-2-0.4-3.1-0.7-3.7
	c0,0,0-0.1,0-0.1c-0.2-0.5-0.4-0.6-0.4-0.6c-0.5-0.4-0.9-0.7-1.3-1.1c-0.5-0.4-0.9-0.9-1.3-1.3c-0.4-0.5-0.8-1-1.2-1.5
	c0,0,0-0.1-0.1-0.1c-0.3-0.4-0.5-0.8-0.7-1.2c-0.3-0.5-0.5-0.9-0.7-1.4c-0.1-0.3-0.3-0.6-0.4-0.9c0.1,0,0.2,0,0.3,0c0,0,0,0,0,0
	c0,0,0,0,0-0.1c0-0.5,0-2.2-1-3.7c0-0.5,0-0.9,0-1.3c0.1-2.7,0.9-4.6,0.9-4.6c0.1,2.5,0.6,4.5,1.4,6.2c0.4,0.8,0.8,1.6,1.3,2.3
	c2.3,3.4,5.3,4.8,5.3,4.8c0.5-1.2,0.9-2.5,1.2-3.8c0.7-0.8,1.3-2.2,1.6-4.2c0,0-0.3-0.1-0.7-0.2c1-7.2,0.6-14.3,0.6-14.3
	c-5-2.5-7.7-8.8-7.9-9.2c2.5,4,8,6.2,8,6.2c0.2-1.2,0.2-2.3,0-3.4c-0.3-2-1.1-3.6-1.9-4.8c0,0,0,0,0,0c0,0,0,0,0,0
	c-0.2-0.4-0.5-0.7-0.7-1c0,0,0-0.1-0.1-0.1c0-0.3,0.1-0.6,0.1-0.9c0-0.7-0.1-1.4-0.2-2.3c-0.1-0.3-0.1-0.5-0.2-0.8
	c0.5,0.5,1.3,0.5,1.9,0c0,0,0,0,0.1-0.1c2.3-2.1,3.5-7.3,3.5-7.3c1.8,4.6-1.9,8.9-1.9,8.9c2,3.8,2.9,8.4,3.3,12.5
	c0,0.4,0.1,0.7,0.1,1.1c-0.6-0.2-1.4-0.2-2.2-0.3c0,0-0.9,3.6,2.4,5v0.2c0,2.9-0.2,4.8-0.2,4.8c4.1-2.3,4.2-7.5,4.2-7.9
	c0.5,5.1-1.4,9.4-2.9,11.9c-1.5,2.5-2.7,5.3-3.3,8.2c-1.7,7.6-0.9,15.4,3.3,16.2c5.3,1,9.7-5.6,9.7-5.6c1.7-2.4,2.3-4.8,2.4-6.8
	c0-2.9-1.1-5.7-3-7.8c-0.8-0.9-1.4-1.7-1.8-2.6c-0.3-0.6-0.5-1.2-0.7-1.8c0,0,0,0,0,0c-0.1-0.5-0.2-1-0.3-1.4c0-0.3-0.1-0.5-0.1-0.8
	c0-0.3,0-0.5,0-0.8c0.4,0.1,0.8,0.1,1.2,0.2c0,0,0-0.1,0-0.2c0-0.1,0-0.2,0.1-0.3c0.1-0.7,0.1-2-0.9-2.9c0-0.1,0.1-0.3,0.1-0.4
	c0.1-0.5,0.3-1,0.4-1.4c0-0.1,0.1-0.3,0.1-0.4c0.8-0.6,1.5-1.7,1.9-3.6c0.3-0.5,0.7-1,1.2-1.4c0.2-0.2,0.3-0.3,0.5-0.5
	c5.2-4.9,3.5-17.4,3.5-17.4c4.1,5.7,3.5,11.3,2,15.4c-0.3-0.3-0.7-0.6-1.1-1c0,0-3.1,2.5-1.5,5.8c-0.6,0.9-1.1,1.5-1.1,1.5
	c-4.9,6,0,9.1,0,9.1c1.2-3.2,2.7-5.9,4.5-8.1c0.1-0.1,0.3-0.3,0.5-0.5c0,0,0.1-0.1,0.1-0.1c0.1-0.1,0.1-0.2,0.2-0.3c0,0,0,0,0,0
	c0,0,0,0,0,0c6.5-7.6,14.8-9.4,15.1-9.5c-13.5,7.6-18.3,22.1-18.3,22.1c3.2,2.8,3.9,8,4,10c0,0.5,0.1,0.9,0,1.4
	c-0.7,8.4-14,16.6-14,16.6c2.5,1.1,3.2,5.8,3.2,5.8c8.9,0.4,16-4.6,19.8-8c1.8-1.6,2.7-4,2.5-6.5c-1-9.9,4.1-15.7,4.1-15.7
	c3.6-3.7,2.9-12.5,2.9-12.5c1.6,1.7,2.2,7.4,2.2,7.4c5.6-5.8,16.7-4.6,16.7-4.6c-21.3,5.2-23.1,20.7-22.9,26.8c0.1,2,1.5,3.7,3.4,4
	c1.7,0.3,1.8,0.5,3.4,0.4c3.3-0.1,6.5-10.2,6.5-10.2c1.8,5.7-2.7,11-2.7,11c2.3,0.3,9.8,2.2,9.8,2.2c0.8-1.1,1.7-2.1,2.7-2.9
	c0.6-0.5,1.2-1,1.8-1.5c6.2-4.6,12.8-4.6,12.9-4.6c-9.2,2-14.9,10.2-14.9,10.2C177.8,86,179.7,90,179.8,90.1"/>
<g>
	<path fill="#7D705A" d="M302.6,93.3L280.9,137h-10.7l-21.5-43.8v50.4h-17.9V63.6H255l20.6,44l20.7-44h24.1v80.1h-17.9V93.3z"/>
	<path fill="#7D705A" d="M344.5,168c-6,0-11.7-2.4-17.1-7.3l7.8-12.7c2.9,2.8,5.9,4.2,8.9,4.2c1.6,0,3-0.8,4.1-2.3
		c1.1-1.6,1.7-3.2,1.7-5c0-1.8-7.9-22.7-23.8-62.8h18.3l15,38.4l15-38.4h18.3l-28.6,72.6c-1.7,4.2-4.3,7.5-7.8,9.8
		C352.8,166.8,348.9,168,344.5,168z"/>
	<path fill="#918A66" d="M466,63.6v15.9h-39.9V96h35.9v15.2h-35.9v16.6h41.1v15.8h-59V63.6H466z"/>
	<path fill="#918A66" d="M528.4,143.7h-16.2v-7.4c-4.4,5.6-9.9,8.4-16.4,8.4c-6.5,0-12-1.9-16.4-5.7c-4.4-3.8-6.6-8.8-6.6-15.1
		s2.3-11,6.9-14.2c4.6-3.1,10.8-4.7,18.8-4.7h12.8v-0.3c0-6.6-3.5-9.9-10.4-9.9c-3,0-6.1,0.6-9.5,1.8c-3.3,1.2-6.1,2.7-8.4,4.4
		l-7.7-11.1c8.1-5.9,17.3-8.8,27.7-8.8c7.5,0,13.6,1.9,18.3,5.6c4.7,3.7,7.1,9.7,7.1,17.8V143.7z M511.1,120.2v-3h-10.8
		c-6.9,0-10.3,2.1-10.3,6.4c0,2.2,0.8,3.9,2.5,5.1c1.6,1.2,4,1.8,7,1.8c3.1,0,5.7-0.9,8.1-2.8C509.9,125.8,511.1,123.3,511.1,120.2z
		"/>
	<path fill="#918A66" d="M585.9,124.5c0,6.1-2.2,10.9-6.7,14.6c-4.5,3.7-10.1,5.5-17,5.5c-4.6,0-9.4-0.8-14.3-2.5
		c-5-1.6-9.4-4.1-13.4-7.3l7.6-10.8c6.4,5,13.3,7.4,20.5,7.4c2.2,0,4-0.4,5.3-1.3c1.3-0.9,1.9-2,1.9-3.5c0-1.5-0.9-2.8-2.7-4
		c-1.8-1.2-4.4-2.4-7.8-3.4c-3.4-1.1-6-2-7.8-2.7c-1.8-0.8-3.8-1.9-6.1-3.3c-4.7-2.9-7-7.2-7-12.9c0-5.7,2.3-10.3,6.9-13.9
		c4.6-3.6,10.5-5.4,17.8-5.4c7.3,0,14.5,2.4,21.8,7.3l-6.4,11.5c-5.3-3.7-10.7-5.5-16-5.5c-5.3,0-8,1.5-8,4.4c0,1.6,0.8,2.9,2.5,3.8
		c1.7,0.9,4.5,2,8.4,3.2c3.9,1.2,6.7,2.2,8.3,2.8c1.6,0.6,3.6,1.7,5.9,3C583.8,114.1,585.9,118.4,585.9,124.5z"/>
	<path fill="#918A66" d="M606.3,168c-6,0-11.7-2.4-17.1-7.3l7.8-12.7c2.9,2.8,5.9,4.2,8.9,4.2c1.6,0,3-0.8,4.1-2.3
		c1.1-1.6,1.7-3.2,1.7-5c0-1.8-7.9-22.7-23.8-62.8h18.3l15,38.4l15-38.4h18.3L626,154.7c-1.7,4.2-4.3,7.5-7.8,9.8
		C614.6,166.8,610.7,168,606.3,168z"/>
	<path fill="#B7AF83" d="M672.3,143.7V63.6h17.9v64.2h34.1v15.9H672.3z"/>
	<path fill="#B7AF83" d="M785.9,143.7h-16.2v-7.4c-4.4,5.6-9.9,8.4-16.4,8.4s-12-1.9-16.4-5.7c-4.4-3.8-6.6-8.8-6.6-15.1
		s2.3-11,6.9-14.2c4.6-3.1,10.8-4.7,18.8-4.7h12.8v-0.3c0-6.6-3.5-9.9-10.4-9.9c-3,0-6.1,0.6-9.5,1.8c-3.3,1.2-6.1,2.7-8.4,4.4
		l-7.7-11.1c8.1-5.9,17.3-8.8,27.7-8.8c7.5,0,13.6,1.9,18.3,5.6c4.7,3.7,7.1,9.7,7.1,17.8V143.7z M768.5,120.2v-3h-10.8
		c-6.9,0-10.3,2.1-10.3,6.4c0,2.2,0.8,3.9,2.5,5.1c1.6,1.2,4,1.8,7,1.8c3.1,0,5.7-0.9,8.1-2.8C767.4,125.8,768.5,123.3,768.5,120.2z
		"/>
	<path fill="#B7AF83" d="M825.6,81c7.5,0,14,2.9,19.6,8.8c5.6,5.8,8.4,13.3,8.4,22.5c0,9.2-2.9,16.8-8.6,23
		c-5.7,6.2-12.2,9.3-19.5,9.3c-7.3,0-13.3-3-18.2-9.1v8.1h-17.2v-85h17.2v30.2C812,83.6,818.1,81,825.6,81z M807,112.9
		c0,5,1.4,9.1,4.2,12.3c2.8,3.2,6.2,4.8,10.1,4.8s7.4-1.6,10.4-4.8c3-3.2,4.5-7.2,4.5-12.2c0-5-1.5-9.1-4.4-12.5
		c-2.9-3.4-6.4-5-10.4-5c-4,0-7.5,1.7-10.3,5C808.4,103.7,807,107.9,807,112.9z"/>
	<path fill="#B7AF83" d="M908.2,124.5c0,6.1-2.2,10.9-6.7,14.6c-4.5,3.7-10.1,5.5-17,5.5c-4.6,0-9.4-0.8-14.3-2.5
		c-5-1.6-9.4-4.1-13.4-7.3l7.6-10.8c6.4,5,13.3,7.4,20.5,7.4c2.2,0,4-0.4,5.3-1.3c1.3-0.9,1.9-2,1.9-3.5c0-1.5-0.9-2.8-2.7-4
		c-1.8-1.2-4.4-2.4-7.8-3.4c-3.4-1.1-6-2-7.8-2.7c-1.8-0.8-3.8-1.9-6.1-3.3c-4.7-2.9-7-7.2-7-12.9c0-5.7,2.3-10.3,6.9-13.9
		c4.6-3.6,10.5-5.4,17.8-5.4c7.3,0,14.5,2.4,21.8,7.3l-6.4,11.5c-5.3-3.7-10.7-5.5-16-5.5c-5.3,0-8,1.5-8,4.4c0,1.6,0.8,2.9,2.5,3.8
		c1.7,0.9,4.5,2,8.4,3.2c3.9,1.2,6.7,2.2,8.3,2.8c1.6,0.6,3.6,1.7,5.9,3C906.1,114.1,908.2,118.4,908.2,124.5z"/>
</g>
</svg>
