<?xml version="1.0" encoding="utf-8"?>
<!-- Generator: Adobe Illustrator 18.1.1, SVG Export Plug-In . SVG Version: 6.00 Build 0)  -->
<svg version="1.1" id="Layer_1" xmlns="http://www.w3.org/2000/svg" xmlns:xlink="http://www.w3.org/1999/xlink" x="0px" y="0px"
	 viewBox="0 0 920 188" enable-background="new 0 0 920 188" xml:space="preserve">
<path fill="#B1D055" d="M136.1,28.2c0,0,7.6,3.6,9.4-7.7c0,0-8-3.1-9.6,7c0,0,4.3-4.5,7-5C142.9,22.5,139.2,24.8,136.1,28.2"/>
<path fill="#42862F" d="M38.9,60.2c0,0-5.2-3.2-7.3,4.8c0,0,5.5,2.8,7.4-4.3c0,0-3.4,2.9-5.4,3C33.7,63.8,36.5,62.4,38.9,60.2"/>
<path fill="#42862F" d="M31.7,59c0,0-5.6-4.4-9.2,4.7c0,0,6.1,4,9.3-4c0,0-4.4,3-6.8,2.8C25,62.4,28.5,61.2,31.7,59"/>
<path fill="#B1D055" d="M29.1,56.4c0,0,2.9-6.6-6.9-7.9c0,0-2.4,7,6.3,8.1c0,0-4-3.6-4.5-5.9C24,50.8,26,53.9,29.1,56.4"/>
<path fill="#66933D" d="M33.3,56.1c0,0,3.9-3.9-2.7-7.5c0,0-3.7,4.3,2.2,7.5c0,0-1.8-3.7-1.5-5.5C31.2,50.7,31.8,53.5,33.3,56.1"/>
<path fill="#66933D" d="M26.3,57.3c0,0-4.5-7-11.9,1.6c0,0,5.1,6.8,11.8-0.9c0,0-6,1.6-8.5,0.5C17.6,58.6,21.9,58.6,26.3,57.3"/>
<path fill="#42862F" d="M34.4,48c0,0,1.2-5.8-6.9-5.1c0,0-0.7,6,6.4,5.4c0,0-3.8-2.2-4.6-3.9C29.3,44.4,31.5,46.5,34.4,48"/>
<path fill="#42862F" d="M34.3,42.4c0,0,1.7-5.9-6.7-5.9c0,0-1.3,6.1,6.2,6.1c0,0-3.8-2.6-4.4-4.5C29.3,38.2,31.4,40.6,34.3,42.4"/>
<path fill="#66933D" d="M35.4,39.6c0,0,6.8-2.9,0.4-10.6c0,0-6.6,3.5-1,10.4c0,0-0.5-5.4,0.8-7.5C35.5,31.8,34.9,35.6,35.4,39.6"/>
<path fill="#66933D" d="M36,42.6c0,0,6,4.5,9.5-5.1c0,0-6.4-4-9.6,4.4c0,0,4.5-3.2,7-3.1C42.8,38.7,39.2,40.1,36,42.6"/>
<path fill="#B1D055" d="M36.3,45c0,0,0.5,7.9,10.6,4.1c0,0-1.2-7.9-10.1-4.6c0,0,5.7,1.4,7.3,3.4C44.1,47.8,40.6,45.9,36.3,45"/>
<path fill="#42862F" d="M44.6,58.1c0,0,6.1-2.7,0.2-9.6c0,0-6,3.2-0.8,9.4c0,0-0.5-4.9,0.6-6.8C44.7,51.1,44.1,54.5,44.6,58.1"/>
<path fill="#2A0F11" d="M54.2,56.6c-0.3,0.6-0.6,1.1-1,1.6c-0.1-0.7-0.2-1.4-0.2-2.3C53.8,56.3,54.2,56.6,54.2,56.6"/>
<path fill="#2A0F11" d="M65.2,27.8c0,1.4-0.2,2.6-0.5,3.5c-0.2-1.1-0.3-2.3-0.3-3.6C64.9,27.7,65.2,27.8,65.2,27.8"/>
<path fill="#2A0F11" d="M75.3,36.2L75.3,36.2c-0.1,0.3-0.3,0.5-0.4,0.7l0.3-2.9C75.3,34,75.2,34.9,75.3,36.2"/>
<path fill="#2A0F11" d="M95.4,59.1c-0.1,0-0.2,0-0.3,0c-0.5-1.4-0.7-2.7-0.8-3.8C95.6,57,95.4,59.1,95.4,59.1"/>
<path fill="#2A0F11" d="M103.2,27.9c-0.5-0.6-1.1-1.1-1.8-1.6c0,0-0.1-0.1-0.1-0.1c-0.5-0.4-1.1-0.7-1.7-1c0,0,0,0,0,0
	c-8.3-3.9-7.7-9.1-7.7-9.1s1,5.1,10.6,7.3c0.1,0.1,0.1,0.2,0.2,0.2c0,0,0.1,0.1,0.1,0.1c0,0,0.1,0.1,0.1,0.1h0
	C103.3,25.6,103.3,26.9,103.2,27.9"/>
<path fill="#2A0F11" d="M106,54.7c-0.3,2.1-0.9,3.4-1.6,4.2c0.3-1.4,0.6-2.9,0.8-4.4C105.7,54.6,106,54.7,106,54.7"/>
<path fill="#2A0F11" d="M110,43.7c-3.3-1.4-2.4-5-2.4-5c0.9,0,1.6,0.1,2.2,0.3c0.1,0.8,0.1,1.5,0.1,2.2c0,0.2,0,0.3,0,0.5
	C110,42.4,110,43.1,110,43.7"/>
<path fill="#2A0F11" d="M118.4,49.5c-0.4,0-0.9-0.1-1.2-0.2c0-0.4,0-0.8,0-1.2v0c0,0,0-0.1,0-0.1c0.1-0.6,0.2-1.3,0.3-1.9
	C119,47.4,118.4,49.5,118.4,49.5"/>
<path fill="#2A0F11" d="M120.1,40.3c-0.4,1.9-1.1,3-1.9,3.6C118.8,42.4,119.5,41.1,120.1,40.3"/>
<path fill="#2A0F11" d="M127.2,36.4c-0.2,0.6-0.5,1.2-0.8,1.8v0c-0.1,0.1-0.1,0.3-0.2,0.4l0,0c-0.6,1.1-1.1,2-1.6,2.7
	c-1.6-3.4,1.5-5.8,1.5-5.8C126.5,35.8,126.9,36.1,127.2,36.4"/>
<path fill="#2A0F11" d="M128.8,42.8c-0.3,0.4-0.5,0.7-0.8,1C128.3,43.5,128.5,43.2,128.8,42.8"/>
<path fill="#66933D" d="M55.6,56.4c-0.4,0.7-0.7,1.3-1.1,1.9c-4.2,5.9-8.4,1.8-8.4,1.8c3.4-1.9,6.9-2.8,6.9-2.8
	c-2.3-0.4-6.9,2.1-6.9,2.1c2.8-5.3,6.3-4.7,8.2-3.8C55.1,55.9,55.6,56.4,55.6,56.4"/>
<path fill="#66933D" d="M53.1,53.3c0,0,5.6-4.4-2.3-10c0,0-5.3,4.9,1.7,9.9c0,0-1.8-4.9-1.1-7.2C51.3,46,51.6,49.7,53.1,53.3"/>
<path fill="#B1D055" d="M54,54.5c0,0,5.5,4.5,9.3-4.4c0,0-5.9-4.2-9.4,3.8c0,0,4.5-2.8,6.8-2.6C60.7,51.2,57.2,52.4,54,54.5"/>
<path fill="#42862F" d="M56.3,59.6c0,0,4.5,3.8,7.8-3.5c0,0-4.9-3.5-7.8,3c0,0,3.8-2.3,5.7-2.1C61.9,56.9,59,57.8,56.3,59.6"/>
<path fill="#B1D055" d="M68,64.8c0,0,7.2-0.4,3.9-9.7c0,0-7.3,1-4.3,9.2c0,0,1.4-5.2,3.2-6.6C70.7,57.7,68.9,60.9,68,64.8"/>
<path fill="#66933D" d="M77.7,67.4c0,0,6.3-0.1,3.8-8.4c0,0-6.4,0.6-4.2,7.9c0,0,1.4-4.5,3.1-5.7C80.4,61.2,78.6,64,77.7,67.4"/>
<path fill="#66933D" d="M72,50.8c0,0-3.9-7-11.6,0.8c0,0,4.6,6.8,11.4-0.1c0,0-5.9,1.1-8.2,0C63.5,51.5,67.7,51.7,72,50.8"/>
<path fill="#42862F" d="M66.5,45.4c0,0-2.5-5.8-9.2-0.3c0,0,3,5.7,9,0.8c0,0-4.7,0.4-6.5-0.7C59.8,45.2,63,45.8,66.5,45.4"/>
<path fill="#66933D" d="M60.9,40.2c0,0-3.8-6.3-10.5,1.2c0,0,4.4,6,10.4-0.5c0,0-5.3,1.2-7.5,0.3C53.2,41.2,57,41.3,60.9,40.2"/>
<path fill="#66933D" d="M54.4,36c0,0-4.7-4.3-8.5,3.5c0,0,5.1,4,8.5-3c0,0-4.1,2.3-6.2,2.1C48.2,38.6,51.4,37.8,54.4,36"/>
<path fill="#B1D055" d="M56.6,33.8c0,0,6.1-5.5-3.5-11.4c0,0-5.8,6.1,2.8,11.3c0,0-2.5-5.6-1.9-8.2C54,25.5,54.7,29.7,56.6,33.8"/>
<path fill="#42862F" d="M52.4,33c0,0,0.1-8-10.5-5c0,0,0.6,8.1,9.9,5.5c0,0-5.6-1.9-7.1-4C44.7,29.5,48.2,31.7,52.4,33"/>
<path fill="#42862F" d="M64.2,27.7c0,0,0.1-8-10.5-5c0,0,0.6,8.2,10,5.5c0,0-5.7-1.9-7.2-4C56.5,24.1,60,26.4,64.2,27.7"/>
<path fill="#66933D" d="M64.8,22.1c0,0,5-3.8-1.9-8.9c0,0-4.8,4.3,1.3,8.8c0,0-1.5-4.4-0.9-6.4C63.3,15.6,63.6,18.9,64.8,22.1"/>
<path fill="#42862F" d="M66.5,24.8c0,0,7.5,3.2,8.8-7.9c0,0-7.9-2.6-9,7.2c0,0,4-4.6,6.6-5.1C72.7,19,69.3,21.4,66.5,24.8"/>
<path fill="#42862F" d="M67.1,27.8c0,0,1.7,7.7,11.1,2.5c0,0-2.3-7.7-10.7-3.1c0,0,5.8,0.6,7.7,2.3C75.2,29.5,71.4,28.1,67.1,27.8"
	/>
<path fill="#66933D" d="M76.1,33c0,0,6.4,2.4,7-6.9c0,0-6.7-1.9-7.2,6.3c0,0,3.1-4,5.3-4.5C81.1,27.9,78.3,30,76.1,33"/>
<path fill="#B1D055" d="M76.2,34.1c0,0-1.7,5.3,5.9,5.5c0,0,1.3-5.5-5.5-5.7c0,0,3.4,2.4,3.9,4.2C80.5,38.1,78.7,35.9,76.2,34.1"/>
<path fill="#42862F" d="M78.1,46.7c0,0,6.5,2.3,7-7.1c0,0-6.7-1.8-7.2,6.5c0,0,3.1-4,5.3-4.6C83.1,41.5,80.3,43.6,78.1,46.7"/>
<path fill="#66933D" d="M85.6,40c0,0,3.2-6.3-6.3-8c0,0-2.7,6.6,5.7,8.2c0,0-3.7-3.7-4-6C80.9,34.2,82.8,37.4,85.6,40"/>
<path fill="#66933D" d="M87.5,40.2c0,0,6.7,1.5,6-7.8c0,0-6.9-1-6.3,7.3c0,0,2.6-4.4,4.6-5.2C91.7,34.4,89.3,36.9,87.5,40.2"/>
<path fill="#B1D055" d="M87.5,41.7c0,0-0.4,6.5,8.2,4.5c0,0-0.1-6.6-7.8-4.9c0,0,4.5,1.8,5.6,3.6C93.5,45,90.8,43,87.5,41.7"/>
<path fill="#66933D" d="M98.3,61.3c-0.1,0-0.2,0-0.4,0c-12,1.1-10.4-7.6-10.4-7.6c4.4,2.3,7.9,5.4,7.9,5.4c-1.3-2.7-7.2-5.9-7.2-5.9
	c4.8-0.5,7.3,1,8.6,2.8C98.6,58.4,98.3,61.3,98.3,61.3"/>
<path fill="#42862F" d="M95.5,49.2c0,0,6.6-0.6,3.2-9c0,0-6.6,1.1-3.7,8.6c0,0,1.1-4.8,2.7-6.2C97.8,42.6,96.3,45.6,95.5,49.2"/>
<path fill="#66933D" d="M95.9,51.8c0,0,3.8,5.4,9.4-1.7c0,0-4.3-5.2-9.3,1.1c0,0,4.7-1.4,6.7-0.7C102.7,50.4,99.3,50.6,95.9,51.8"/>
<path fill="#66933D" d="M105.7,45.6c0,0,0.4-6.6-8.5-4.5c0,0,0.2,6.7,8,4.9c0,0-4.6-1.8-5.7-3.6C99.5,42.4,102.2,44.4,105.7,45.6"/>
<path fill="#42862F" d="M102,37.9c0,0-2.4-5.4-8.5-0.2c0,0,2.8,5.3,8.3,0.7c0,0-4.3,0.4-6-0.6C95.8,37.8,98.8,38.3,102,37.9"/>
<path fill="#B1D055" d="M98.1,34.1c0,0,1.1-7-8.5-5.8c0,0-0.6,7.2,8,6.2c0,0-4.7-2.4-5.7-4.5C91.9,30,94.6,32.4,98.1,34.1"/>
<path fill="#66933D" d="M104.8,26.7c-0.8,5-5.6,4.8-5.6,4.8c1-3.1,2.6-5.8,3.3-6.9c0.2-0.4,0.4-0.6,0.4-0.6
	c-0.2,0.1-0.4,0.3-0.6,0.5c-1.9,1.9-3.6,6.5-3.6,6.5c-1.1-4.1-0.1-6.5,1.3-7.8c1.6-1.5,3.7-1.8,4.2-1.9c0.1,0,0.1,0,0.1,0
	c0,0.1,0,0.1,0,0.2h0C104.9,23.7,105,25.4,104.8,26.7"/>
<path fill="#42862F" d="M103.7,35.7c0,0,6.1-2.4,0.6-9.4c0,0-6,2.9-1.1,9.2c0,0-0.3-4.8,0.9-6.6C104,28.8,103.4,32.1,103.7,35.7"/>
<path fill="#66933D" d="M97.1,29.5c0,0,4.1-6.4-5.8-9.2c0,0-3.6,6.8,5.1,9.4c0,0-3.5-4.3-3.7-6.8C92.8,22.9,94.4,26.4,97.1,29.5"/>
<path fill="#B1D055" d="M92.2,19.3c0,0-3.2-8.2-12.7-0.8c0,0,3.9,8.1,12.4,1.5c0,0-6.5,0.4-8.9-1.2C83,18.9,87.4,19.7,92.2,19.3"/>
<path fill="#42862F" d="M93.1,17.3c0,0,6.3,1.1,5.3-7.6c0,0-6.5-0.6-5.6,7.1c0,0,2.2-4.2,4.1-5.1C96.9,11.7,94.7,14.1,93.1,17.3"/>
<path fill="#66933D" d="M92.1,15.7c0,0,3.7-6.9-6.7-9.1c0,0-3.2,7.3,6,9.3c0,0-4-4.2-4.3-6.8C87.1,9.1,89.1,12.7,92.1,15.7"/>
<path fill="#42862F" d="M109.1,18c0,0,7.6,4.9,11-7c0,0-8.1-4.3-11.2,6.1c0,0,5.2-4.2,8.1-4.4C117.1,12.9,112.9,14.8,109.1,18"/>
<path fill="#42862F" d="M109.6,19.2c0,0-2.7,4.7,4.5,6.3c0,0,2.3-5-4-6.5c0,0,2.7,2.9,2.9,4.7C112.9,23.7,111.6,21.3,109.6,19.2"/>
<path fill="#66933D" d="M109.3,32.5c0,0,5.2,1.4,5-6c0,0-5.4-1-5.2,5.5c0,0,2.2-3.3,3.8-4C112.8,28.1,110.8,29.9,109.3,32.5"/>
<path fill="#42862F" d="M109.1,40.5c-0.7-0.7-1.1-1.2-1.1-1.2c0.2,0.6,0.6,1.2,1.1,1.8c1.4,1.6,3.5,3.2,3.5,3.2
	c-1.4-0.1-2.6-0.3-3.5-0.7c-4.1-1.7-3-6.2-3-6.2c1.1,0,2,0.1,2.8,0.3c5.9,1.4,4.3,6.3,4.3,6.3C111.5,42.8,110.1,41.4,109.1,40.5"/>
<path fill="#B1D055" d="M114.3,40.6c0,0,6.1-2.9-0.1-9.8c0,0-5.9,3.5-0.5,9.5c0,0-0.7-5,0.4-6.9C114.1,33.5,113.7,37,114.3,40.6"/>
<path fill="#66933D" d="M121.4,38.2c-0.1,0.5-0.1,0.9-0.2,1.3l0,0c-0.4,2.3-1.3,3.6-2.2,4.3v0c-2,1.6-4.4,0.5-4.4,0.5
	c2.2-2.6,4.8-4.4,4.9-4.5c-2,0.4-5.1,4-5.1,4C115.2,36.1,121.4,38.2,121.4,38.2"/>
<path fill="#42862F" d="M120.9,38c0,0,5.3-4.2-2.3-9.5c0,0-5,4.7,1.6,9.4c0,0-1.7-4.7-1.1-6.8C119.2,31.1,119.6,34.6,120.9,38"/>
<path fill="#66933D" d="M125,30c0,0,2.5-6.7-7.2-7.3c0,0-2,7,6.6,7.6c0,0-4.1-3.3-4.7-5.5C119.7,24.7,121.9,27.6,125,30"/>
<path fill="#42862F" d="M124.7,22.4c0,0,2.6-6.9-7.5-7.6c0,0-2.1,7.3,6.9,7.9c0,0-4.3-3.4-4.9-5.8C119.1,16.9,121.4,20,124.7,22.4"
	/>
<path fill="#B1D055" d="M126,19.8c0,0,6.2-2.2,0.9-9.4c0,0-6.1,2.7-1.4,9.2c0,0-0.1-4.9,1.1-6.6C126.6,12.9,125.9,16.2,126,19.8"/>
<path fill="#66933D" d="M127.2,22.6c0,0,6.3,3.6,8.5-6.1c0,0-6.7-3.1-8.7,5.5c0,0,4-3.7,6.3-3.9C133.3,18,130,19.8,127.2,22.6"/>
<path fill="#42862F" d="M129.1,29.2c0,0,5.4,3.6,8.1-4.9c0,0-5.8-3.3-8.2,4.3c0,0,3.8-3,6-3C134.9,25.6,131.8,27,129.1,29.2"/>
<path fill="#66933D" d="M128.7,34.4c0,0,4.7,5.2,9.7-3c0,0-5.2-4.9-9.6,2.4c0,0,4.7-2.2,7-1.7C135.7,32.1,132.1,32.7,128.7,34.4"/>
<path fill="#B1D055" d="M128.8,42.8C128.8,42.8,128.8,42.8,128.8,42.8c-0.3,0.4-0.6,0.7-0.8,1c-0.3,0.3-0.5,0.4-0.5,0.4
	c-0.8-2.6-1-5.1-1.1-6v0c0-0.2,0-0.3,0-0.3c-0.1,0.2-0.1,0.4-0.2,0.7l0,0c-0.3,2.1,0.7,5.5,0.7,5.5c-1.2-1-1.9-1.9-2.3-2.8
	c-1.6-3.4,1.5-5.8,1.5-5.8c0.4,0.3,0.7,0.6,1.1,1C130.1,39.3,129.6,41.5,128.8,42.8"/>
<path fill="#42862F" d="M136.7,35.7c0,0,7.1-0.5,3.6-9.7c0,0-7.2,1.1-4.1,9.2c0,0,1.3-5.2,3.1-6.6C139.2,28.7,137.5,31.9,136.7,35.7
	"/>
<path fill="#66933D" d="M142.1,33.1c0,0,6.1,1.1,5.2-7.2c0,0-6.2-0.7-5.5,6.8c0,0,2.2-4,4-4.9C145.9,27.8,143.7,30.1,142.1,33.1"/>
<path fill="#B1D055" d="M141.8,35.5c0,0,2,6.1,9.2,1.1c0,0-2.5-6-9-1.6c0,0,4.8,0,6.5,1.2C148.5,36.2,145.3,35.4,141.8,35.5"/>
<path fill="#42862F" d="M139.6,36.9c0,0-5.3,4.7,2.9,9.8c0,0,5-5.2-2.2-9.8c0,0,2.1,4.8,1.5,7.1C141.8,44,141.2,40.4,139.6,36.9"/>
<path fill="#B1D055" d="M131.6,45.8c0,0,3.9,5.9,10.1-1.5c0,0-4.4-5.7-10,0.8c0,0,5.1-1.4,7.2-0.5C139,44.7,135.3,44.7,131.6,45.8"
	/>
<path fill="#66933D" d="M129,59.9c0,0,6.4,3,7.9-6.5c0,0-6.7-2.6-8.1,5.9c0,0,3.6-3.8,5.9-4.2C134.7,55.1,131.6,57,129,59.9"/>
<path fill="#42862F" d="M130.3,61.6c0,0-1.8,6.9,7.9,6.5c0,0,1.3-7.1-7.3-6.9c0,0,4.4,2.8,5.2,5C136.1,66.3,133.6,63.6,130.3,61.6"
	/>
<path fill="#B1D055" d="M140.8,69.2c0,0,2.9-6.5-6.7-7.7c0,0-2.4,6.8,6.1,8c0,0-3.9-3.5-4.4-5.8C135.8,63.6,137.9,66.7,140.8,69.2"
	/>
<path fill="#42862F" d="M142.5,61.9c0,0,6.8-4.8-2.2-11.8c0,0-6.5,5.4,1.4,11.7c0,0-1.8-5.9-0.9-8.5C140.8,53.3,141,57.6,142.5,61.9
	"/>
<path fill="#B1D055" d="M147.9,51.6c0,0,2.2-6-6.6-6.5c0,0-1.7,6.3,6,6.8c0,0-3.8-2.9-4.3-4.9C143,46.9,145,49.5,147.9,51.6"/>
<path fill="#42862F" d="M149.7,48.1c0,0,8.4,2.4,8.2-9.6c0,0-8.7-1.7-8.6,8.9c0,0,3.6-5.4,6.3-6.4C155.6,41,152.3,44,149.7,48.1"/>
<path fill="#B1D055" d="M158.1,49.8c0,0,11-1.6,4.7-15.4c0,0-11.1,2.5-5.5,14.8c0,0,1.4-8.1,4.1-10.6
	C161.4,38.6,159,43.8,158.1,49.8"/>
<path fill="#66933D" d="M164.6,48.8c0,0,9.6,1.9,8.4-11.4c0,0-9.9-1.2-8.9,10.7c0,0,3.6-6.4,6.5-7.6C170.6,40.3,167.1,44,164.6,48.8
	"/>
<path fill="#66933D" d="M147.3,32.4c0,0,4.7,6.5,11.4-2.2c0,0-5.3-6.2-11.3,1.4c0,0,5.7-1.8,8.2-1C155.6,30.7,151.5,30.9,147.3,32.4
	"/>
<path fill="#42862F" d="M164,50.9c0,0-0.2,7,9.1,4.6c0,0-0.3-7.1-8.6-5c0,0,4.9,1.8,6.2,3.7C170.7,54.2,167.7,52.2,164,50.9"/>
<path fill="#B1D055" d="M158,53.6c0,0-0.4,5.8,7.4,4.1c0,0-0.1-5.9-7-4.4c0,0,4,1.6,5,3.3C163.4,56.5,161,54.7,158,53.6"/>
<path fill="#B1D055" d="M147.9,62.8c0,0,3.8,5.6,9.6-1.5c0,0-4.3-5.4-9.5,0.9c0,0,4.8-1.4,6.9-0.6C154.9,61.6,151.5,61.7,147.9,62.8
	"/>
<path fill="#66933D" d="M169.5,64.1c0,0,3.9-5.2-4.4-8.3c0,0-3.6,5.6,3.8,8.4c0,0-2.8-4-2.7-6.1C166.2,58.1,167.4,61.2,169.5,64.1"
	/>
<path fill="#B1D055" d="M171,63.4c0,0,6.4,4.4,9.7-5.7c0,0-6.9-4-9.8,5c0,0,4.6-3.5,7.1-3.6C178,59.1,174.3,60.7,171,63.4"/>
<path fill="#66933D" d="M170,65.6c0,0,0,5.5,7.3,3.3c0,0-0.5-5.6-6.9-3.7c0,0,3.9,1.3,5,2.7C175.3,67.9,172.9,66.4,170,65.6"/>
<path fill="#66933D" d="M148.2,46.2c0,0,4.8-3.3-1.5-8.3c0,0-4.6,3.8,0.9,8.2c0,0-1.3-4.1-0.6-5.9C147,40.2,147.1,43.2,148.2,46.2"
	/>
<path fill="#66933D" d="M110.6,54.3c0,0,4.5,5.3,9.6-2.6c0,0-5-5-9.6,2c0,0,4.7-1.9,6.9-1.4C117.6,52.3,114.1,52.8,110.6,54.3"/>
<path fill="#66933D" d="M107.9,64.2c0,0,6.6,4.2,9.5-6c0,0-7-3.7-9.6,5.3c0,0,4.5-3.7,7-3.8C114.7,59.7,111.1,61.4,107.9,64.2"/>
<path fill="#42862F" d="M122.4,63.4c0,0,1.3-7.9-9.5-6.6c0,0-0.7,8.1,8.9,7c0,0-5.3-2.8-6.4-5.1C115.4,58.7,118.5,61.5,122.4,63.4"
	/>
<path fill="#42862F" d="M120.3,51.5c-0.7-0.1-1.2-0.2-1.8-0.3c-5.9-1.3-4.1-6-4.1-6c2.1,1.6,3.6,3.6,4.1,4.3v0
	c0.1,0.1,0.2,0.2,0.2,0.2c0-0.1-0.1-0.3-0.2-0.4c-0.8-1.8-3.7-4.3-3.7-4.3c2,0.2,3.3,0.8,4.1,1.5C121.2,48.5,120.3,51.5,120.3,51.5"
	/>
<path fill="#B1D055" d="M97.6,21c0,0,5.5,2.2,6.3-5.9c0,0-5.8-1.8-6.5,5.4c0,0,2.8-3.4,4.7-3.8C102.1,16.7,99.6,18.5,97.6,21"/>
<path fill="#66933D" d="M107.2,18.4c0,0,2.9-6.7-7-7.9c0,0-2.4,7,6.4,8.1c0,0-4.1-3.6-4.5-5.9C102,12.7,104.1,15.9,107.2,18.4"/>
<path fill="#42862F" d="M106,54.7c-0.3,2.1-0.9,3.4-1.6,4.2c-1.9,2.3-4.6,1.1-4.6,1.1c1.9-2.3,4.3-3.8,4.4-3.9
	c-1.8,0.4-4.6,3.4-4.6,3.4c0.7-5.2,4.1-5.2,5.6-5v0C105.7,54.6,106,54.7,106,54.7"/>
<path fill="#42862F" d="M89.9,63.4c0,0,3.4,6,10-0.8c0,0-4-5.8-9.8,0.2c0,0,5-1,7.1-0.1C97.2,62.7,93.6,62.6,89.9,63.4"/>
<path fill="#42862F" d="M86.3,35.6c0,0,6.4-2.1,1.1-9.7c0,0-6.4,2.7-1.7,9.5c0,0,0-5,1.3-6.8C87,28.5,86.2,31.9,86.3,35.6"/>
<path fill="#66933D" d="M75.3,36.2L75.3,36.2c-0.1,0.3-0.3,0.5-0.4,0.7c-1.2,1.7-3.3,1.8-3.3,1.8c0.8-3.4,2.4-6.2,2.4-6.2
	c-1.6,1.3-2.8,5.8-2.8,5.8c-1.5-4.2,0-6.2,1.6-7.2c1.1-0.7,2.3-0.9,2.3-0.9c0,0,0,0.1,0,0.1C76,33.1,75.9,35,75.3,36.2"/>
<path fill="#B1D055" d="M65.2,27.8c0,1.4-0.2,2.6-0.5,3.5v0c-1.4,4.6-5.7,3.4-5.7,3.4c1.9-2.9,4.4-5.1,4.4-5.1
	c-2,0.7-4.7,4.5-4.7,4.5c0-3.1,1-4.7,2.2-5.5c0.6-0.4,1.2-0.6,1.8-0.8h0c0.4-0.1,0.8-0.1,1.2-0.1h0.2c0.1,0,0.1,0,0.2,0
	C64.9,27.7,65.2,27.8,65.2,27.8"/>
<path fill="#66933D" d="M63.9,99.4c0,0,3.8,7.4-7.4,9.5c0,0-3.3-7.8,6.6-9.7c0,0-4.3,4.4-4.7,7.1C58.5,106.2,60.6,102.5,63.9,99.4"
	/>
<path fill="#42862F" d="M62.7,96.8c0,0-3.5,6.2-10.3-0.8c0,0,4-6.1,10.1,0.1c0,0-5.2-1-7.3,0C55.2,96.2,58.9,96,62.7,96.8"/>
<path fill="#B1D055" d="M65.2,97.7c0,0,6-1,5,7.3c0,0-6.2,0.5-5.3-6.9c0,0,2.1,4,3.9,4.9C68.8,103.1,66.7,100.7,65.2,97.7"/>
<path fill="#B1D055" d="M45.8,90.2c0,0,4.8-2.5,6.2,4.8c0,0-5.1,2.2-6.4-4.3c0,0,2.9,2.8,4.6,3C50.3,93.7,47.9,92.3,45.8,90.2"/>
<path fill="#66933D" d="M42.4,89.9c0,0,4.4,0.4,2.2,6c0,0-4.4-0.7-2.5-5.7c0,0,0.7,3.2,1.8,4.1C44,94.3,42.9,92.3,42.4,89.9"/>
<path fill="#42862F" d="M39.3,92.4c0,0,6.4,2.4,0.8,9.9c0,0-6.3-2.9-1.4-9.6c0,0-0.2,5.1,1.1,6.9C39.8,99.6,39,96.2,39.3,92.4"/>
<path fill="#66933D" d="M35.9,93.6c0,0,3.9,6.1-5.6,8.9c0,0-3.5-6.5,4.9-9c0,0-3.4,4.2-3.5,6.5C31.7,100,33.3,96.6,35.9,93.6"/>
<path fill="#42862F" d="M33.1,93.3c0,0-3,7.8-12.1,0.8c0,0,3.7-7.7,11.8-1.5c0,0-6.2-0.3-8.5,1.2C24.3,93.8,28.5,93,33.1,93.3"/>
<path fill="#B1D055" d="M33.7,92.6c0,0-6.2,0.1-4-8.1c0,0,6.3,0.4,4.4,7.6c0,0-1.5-4.4-3.2-5.5C30.9,86.7,32.7,89.4,33.7,92.6"/>
<path fill="#66933D" d="M36.1,91.3c0,0-4.8-1.3-1.2-7.1c0,0,4.8,1.7,1.6,6.8c0,0-0.2-3.7-1.2-4.9C35.3,86.1,36.1,88.6,36.1,91.3"/>
<path fill="#42862F" d="M30.3,82.2c0,0,1.6,4-4.2,4.5c0,0-1.3-4.2,3.9-4.7c0,0-2.4,2-2.8,3.4C27.2,85.4,28.5,83.6,30.3,82.2"/>
<path fill="#B1D055" d="M26.1,80.6c0,0,2.2,5.2-5.5,6.1c0,0-1.8-5.5,5-6.3c0,0-3.2,2.8-3.6,4.6C22.1,85,23.7,82.6,26.1,80.6"/>
<path fill="#42862F" d="M22.1,79.8c0,0,0.6,4.3-5.3,3.4c0,0-0.2-4.4,4.9-3.6c0,0-2.9,1.4-3.5,2.6C18.3,82.2,20,80.7,22.1,79.8"/>
<path fill="#66933D" d="M22,78.8c0,0-6,0.9-4.9-7.2c0,0,6.1-0.5,5.2,6.8c0,0-2-4-3.8-4.9C18.5,73.5,20.6,75.8,22,78.8"/>
<path fill="#66933D" d="M25.1,79c0,0-5.6-2.8,0.3-9.1c0,0,5.5,3.3,0.3,8.9c0,0,0.7-4.6-0.3-6.5C25.4,72.4,25.7,75.6,25.1,79"/>
<path fill="#42862F" d="M28.8,80.3c0,0-4.6-3.1,1.3-8c0,0,4.5,3.6-0.8,7.9c0,0,1.2-4,0.5-5.7C29.8,74.5,29.8,77.4,28.8,80.3"/>
<path fill="#B1D055" d="M32,81c0,0-2.7-6.3,6.7-7.3c0,0,2.2,6.6-6.1,7.6c0,0,3.9-3.3,4.3-5.5C37,75.7,34.9,78.6,32,81"/>
<path fill="#42862F" d="M35.9,82.9c0,0,0-4.6,6.1-2.9c0,0-0.3,4.7-5.8,3.2c0,0,3.3-1.1,4.1-2.4C40.4,80.8,38.4,82.1,35.9,82.9"/>
<path fill="#66933D" d="M46.7,86.5c0,0-4.1,1.4-4.4-4.5c0,0,4.3-1.1,4.6,4.1c0,0-2-2.6-3.3-3C43.6,83.2,45.4,84.5,46.7,86.5"/>
<path fill="#B1D055" d="M47,81.7c0,0-3.6,3.6-7-2.4c0,0,3.9-3.4,6.9,2c0,0-3.4-1.7-5-1.4C42,79.8,44.6,80.4,47,81.7"/>
<path fill="#42862F" d="M47,78.1c0,0-3.8,2.4-5.5-3.5c0,0,4.1-2.1,5.6,3.1c0,0-2.6-2.1-4.1-2.2C43,75.4,45.1,76.4,47,78.1"/>
<path fill="#66933D" d="M47.4,76.5c0,0-4-3,1.5-7.1c0,0,3.8,3.4-1.1,7c0,0,1.2-3.5,0.7-5.1C48.6,71.4,48.4,74,47.4,76.5"/>
<path fill="#42862F" d="M48.3,77.3c0,0,0.8-4.7,6.6-1.8c0,0-1.2,4.7-6.3,2.2c0,0,3.5-0.5,4.6-1.6C53.1,76.1,50.8,77,48.3,77.3"/>
<path fill="#66933D" d="M48.9,79.3c0,0,2.8-3.2,5.9,1.7c0,0-3.1,3-5.8-1.3c0,0,2.9,1.2,4.2,0.9C53.1,80.6,51,80.3,48.9,79.3"/>
<path fill="#B1D055" d="M50.5,82.8c0,0,0.4-3.7,5.1-1.8c0,0-0.7,3.8-4.9,2c0,0,2.7-0.6,3.5-1.5C54.3,81.6,52.6,82.4,50.5,82.8"/>
<path fill="#42862F" d="M56.4,84.2c0,0-0.3-3-1.1-4c0,0,0.1,0.3,0.2,0.8c0,0.1,0.1,0.3,0.1,0.4v0c0.2,0.8,0.4,1.8,0.5,2.9v0
	c0,0,0,0,0,0c-0.2-0.1-1.2-0.4-1.7-1.2c-0.2-0.3-0.4-0.7-0.4-1.2c0,0,0-0.1,0-0.2c0-0.1,0-0.1,0-0.2c0-0.3,0-0.7,0.1-1
	c0-0.1,0.1-0.3,0.1-0.4c0.1-0.4,0.4-0.9,0.7-1.5C54.8,78.7,58.7,79.9,56.4,84.2"/>
<path fill="#66933D" d="M61,84.2c0,0-4.6,0.5-3.5-5.8c0,0,4.8-0.1,3.8,5.4c0,0-1.4-3.2-2.8-3.9C58.5,80,60,81.9,61,84.2"/>
<path fill="#B1D055" d="M64.7,84.7c0,0-5.1-0.8-2.1-7.2c0,0,5.2,1.2,2.5,6.9c0,0-0.6-3.8-1.9-5C63.3,79.4,64.3,81.9,64.7,84.7"/>
<path fill="#B1D055" d="M66.2,85c0,0-1.8-5.5,6.1-5.8c0,0,1.4,5.7-5.6,6c0,0,3.4-2.6,4-4.4C70.7,80.9,68.8,83.2,66.2,85"/>
<path fill="#B1D055" d="M19,79.1c0,0-4.6,5.5-10-2.7c0,0,5.1-5.2,9.9,2c0,0-4.9-2-7.2-1.4C11.7,77.1,15.4,77.6,19,79.1"/>
<path fill="#66933D" d="M67.9,96.7c0,0,4.1-3.7,7.4,3c0,0-4.4,3.5-7.4-2.5c0,0,3.6,2,5.4,1.8C73.2,99,70.5,98.2,67.9,96.7"/>
<path fill="#66933D" d="M71.1,77.6c0,0-2.6-6-9.4-0.3c0,0,3.1,5.9,9.2,0.8c0,0-4.8,0.4-6.6-0.7C64.2,77.5,67.6,78,71.1,77.6"/>
<path fill="#42862F" d="M67,73.4c0,0-0.9-7-9.7-3.1c0,0,1.5,7.1,9.3,3.7c0,0-5.2-1-6.7-2.7C59.9,71.2,63.2,72.8,67,73.4"/>
<path fill="#B1D055" d="M60.9,67.4c0,0-5.3-3.2-7.4,5c0,0,5.6,2.8,7.5-4.4c0,0-3.5,3-5.5,3.1C55.6,71.1,58.5,69.6,60.9,67.4"/>
<path fill="#42862F" d="M53.9,66.6c0,0-5.1-2.9-6.9,5c0,0,5.5,2.5,7-4.5c0,0-3.2,3-5.1,3.2C49,70.4,51.6,68.9,53.9,66.6"/>
<path fill="#66933D" d="M48.5,66c0,0-6-6.4-12.1,4c0,0,6.6,6,12.1-3.2c0,0-5.9,2.8-8.7,2.2C39.7,69,44.1,68.2,48.5,66"/>
<path fill="#2A0F11" d="M82.3,100.6c-0.7-0.6-1.3-1.1-1.7-1.5c0,0-0.1-0.1-0.1-0.1c0.1,0.1,0.2,0.1,0.3,0.2c0,0,0.1,0.1,0.1,0.1
	c0,0,0,0,0,0c0,0,0,0,0.1,0.1c0.1,0.1,0.3,0.2,0.4,0.4C81.7,100,82,100.3,82.3,100.6"/>
<path fill="#2A0F11" d="M56,84.3L56,84.3C56,84.4,56,84.4,56,84.3C56,84.3,56,84.3,56,84.3"/>
<path fill="#2A0F11" d="M62.7,89.1c-0.9-0.2-2-0.4-3.2-0.5c0-0.1,0-0.2,0-0.3C59.5,88.3,61.3,88.1,62.7,89.1"/>
<path fill="#2A0F11" d="M79.3,84.3c0,0,0,0.2-0.1,0.4c-0.4-0.3-0.8-0.7-1.2-1.1C78.4,83.8,78.8,84,79.3,84.3"/>
<path fill="#2A0F11" d="M80.7,99.2c0,0-0.1-0.1-0.1-0.1c0,0-0.1-0.1-0.1-0.1C80.5,99,80.6,99.1,80.7,99.2"/>
<path fill="#2A0F11" d="M82.9,88.2c-0.4-0.4-0.8-0.8-1.2-1.2c0,0-0.1-0.1-0.1-0.1c-0.4-0.4-0.9-0.8-1.3-1.3c0.8-0.2,1.8-0.4,3.1-0.4
	C83.3,85.3,83.6,86.8,82.9,88.2"/>
<path fill="#2A0F11" d="M91,74.1c-0.1,0.2-0.2,0.5-0.4,0.7c-0.3-0.4-0.6-0.9-1-1.5C90.5,73.7,91,74.1,91,74.1"/>
<path fill="#2A0F11" d="M102.2,74.9c-0.1,0.6-0.2,1-0.3,1.4c0-0.5,0-1,0.1-1.5C102.1,74.8,102.2,74.9,102.2,74.9"/>
<path fill="#42862F" d="M79.3,84.3c0,0,0,0.2-0.1,0.4c-0.6,1.4-2.9,5.5-8.9,2.3c0,0,4.9-0.5,6.5-2c0,0-3.2,1.2-6.9,1.5
	c0,0,1.2-5.8,8-2.8C78.4,83.8,78.8,84,79.3,84.3"/>
<path fill="#66933D" d="M82.9,88.2c-0.6,1.2-2,2.2-4.9,2.2c0,0,2.8-1.9,3.7-3.4c0.1-0.1,0.1-0.2,0.1-0.3c0,0-0.1,0.1-0.2,0.2
	c-0.6,0.6-2.1,2.1-4,3.3c0,0-0.9-3.4,2.7-4.5c0.8-0.2,1.8-0.4,3.1-0.4C83.3,85.3,83.6,86.8,82.9,88.2"/>
<path fill="#42862F" d="M76,70.2c0,0,3.3-7.2-7.4-8.8c0,0-2.8,7.6,6.7,9c0,0-4.3-4-4.8-6.6C70.5,63.9,72.8,67.4,76,70.2"/>
<path fill="#42862F" d="M91,74.1c-0.1,0.2-0.2,0.5-0.4,0.7c-4.4,7.8-9.3,3.1-9.3,3.1c3.4-2,7-2.8,7-2.8c-2.3-0.4-7,2.2-7,2.2
	c2.8-5.4,6.5-4.8,8.4-3.9C90.5,73.7,91,74.1,91,74.1"/>
<path fill="#B1D055" d="M78.4,68.6c0,0-0.9,7.3,9,5.6c0,0,0.3-7.5-8.5-6c0,0,4.9,2.3,6.1,4.4C85,72.6,82.1,70.2,78.4,68.6"/>
<path fill="#42862F" d="M125.8,87.6c0,0,6.9-1.5,2.3-10c0,0-6.9,2.1-2.8,9.6c0,0,0.5-5.2,2.1-6.9C127.4,80.3,126.1,83.7,125.8,87.6"
	/>
<path fill="#66933D" d="M136,82.2c0,0,5.7-4.3-2.1-10c0,0-5.4,4.8,1.5,9.9c0,0-1.7-5-1-7.2C134.4,74.9,134.7,78.5,136,82.2"/>
<path fill="#42862F" d="M151.1,80.2c0,0,3.3-3-1.9-6.2c0,0-3.1,3.3,1.5,6.1c0,0-1.4-3-1.1-4.4C149.6,75.7,150,78,151.1,80.2"/>
<path fill="#42862F" d="M143.4,84.7c0,0-0.8,7.2,8.9,5.4c0,0,0.2-7.4-8.4-5.9c0,0,4.9,2.2,6,4.3C150,88.6,147.1,86.2,143.4,84.7"/>
<path fill="#42862F" d="M136.4,90.6c0,0-6.7,2.8-0.4,10.5c0,0,6.5-3.4,1-10.2c0,0,0.4,5.4-0.8,7.4C136.2,98.2,136.8,94.6,136.4,90.6
	"/>
<path fill="#66933D" d="M144.4,93.8c0,0-3.9,4.3,3.2,7.7c0,0,3.6-4.6-2.7-7.7c0,0,2.1,3.7,1.9,5.6C146.8,99.4,146,96.5,144.4,93.8"
	/>
<path fill="#B1D055" d="M147.4,93.3c0,0,2.2,5.3,8.3,0.4c0,0-2.6-5.3-8.1-0.9c0,0,4.3-0.3,5.8,0.7C153.5,93.6,150.5,93,147.4,93.3"
	/>
<path fill="#42862F" d="M157.2,70.2c0,0,3.3-5.4-5.1-7.7c0,0-2.9,5.8,4.5,7.8c0,0-3.1-3.6-3.2-5.7C153.4,64.6,154.9,67.6,157.2,70.2
	"/>
<path fill="#B1D055" d="M156.1,72.3c0,0-0.8-5.4-7.5-2.3c0,0,1.2,5.4,7.2,2.7c0,0-4-0.7-5.2-2C150.7,70.7,153.2,71.8,156.1,72.3"/>
<path fill="#66933D" d="M158.9,71.2c0,0,5.4,0.3,3.7-6.9c0,0-5.5,0.1-4.1,6.5c0,0,1.5-3.7,3-4.7C161.6,66.2,160,68.5,158.9,71.2"/>
<path fill="#42862F" d="M158.1,73.6c0,0,3.7,5.3,9.3-1.7c0,0-4.2-5.1-9.2,1.1c0,0,4.6-1.4,6.6-0.7C164.8,72.3,161.4,72.5,158.1,73.6
	"/>
<path fill="#B1D055" d="M173.8,76.2c0,0,7.1-1.4,2.5-10.2c0,0-7.1,2-3.1,9.8c0,0,0.7-5.3,2.3-7C175.5,68.7,174.2,72.2,173.8,76.2"/>
<path fill="#66933D" d="M179.4,74.2c0,0,7.1-0.5,3.7-9.6c0,0-7.2,1.1-4.2,9.2c0,0,1.3-5.1,3.1-6.6C182,67.2,180.2,70.4,179.4,74.2"
	/>
<path fill="#42862F" d="M179.1,76.3c0,0,1.3,7.1,10.1,2.6c0,0-1.9-7.1-9.7-3.2c0,0,5.3,0.7,7,2.4C186.5,78.1,183,76.7,179.1,76.3"/>
<path fill="#66933D" d="M176.5,77.3c0,0-3.6,5.3,4.7,7.9c0,0,3.2-5.6-4.1-8c0,0,2.9,3.7,2.9,5.8C180,83,178.7,80,176.5,77.3"/>
<path fill="#B1D055" d="M172,88c0,0,3.6,5.8,9.8-1.2c0,0-4.1-5.6-9.7,0.5c0,0,4.9-1.2,7-0.3C179.2,87.1,175.7,87,172,88"/>
<path fill="#42862F" d="M170.6,89.5c0,0-6,3.2,0.5,9.8c0,0,5.8-3.7,0.1-9.6c0,0,0.9,5-0.1,7C171,96.6,171.3,93.1,170.6,89.5"/>
<path fill="#66933D" d="M173.7,90.9c0,0-1,7.4,9.1,5.8c0,0,0.4-7.6-8.6-6.3c0,0,5,2.4,6.1,4.6C180.4,95.1,177.5,92.6,173.7,90.9"/>
<path fill="#66933D" d="M168.5,88.5c0,0-3.7-4.6-8.3,2.1c0,0,4.1,4.4,8.2-1.5c0,0-4.1,1.6-6,1C162.4,90.1,165.5,89.7,168.5,88.5"/>
<path fill="#B1D055" d="M117.3,74.8c0,0,5.6-5.7-4-10.9c0,0-5.3,6.2,3.3,10.9c0,0-2.7-5.3-2.3-7.9C114.2,67,115.1,71,117.3,74.8"/>
<path fill="#66933D" d="M96.5,72.6c0,0,6.7,2.1,6.9-7.6c0,0-7-1.6-7.2,7c0,0,3-4.3,5.2-5C101.4,67.1,98.7,69.4,96.5,72.6"/>
<path fill="#66933D" d="M60.9,90.1c0,0,2,2.2,3.5,5c0,0-5.5,1-4.9-6.4c0-0.1,0-0.2,0-0.3c0,0,1.7-0.2,3.2,0.8c0,0,0,0,0,0h0
	c1.2,0.8,2.2,2.4,1.9,5.5C64.6,94.6,62.6,90.9,60.9,90.1"/>
<path fill="#2A0F11" d="M167.3,81.2c0,0-2-11.7,3.2-17.9c0,0-3.7,11.3-1.1,16.9L167.3,81.2z"/>
<path fill="#2A0F11" d="M172.9,90.7c-11.2-9.8-29.3-7.2-29.3-7.2c-1.5,2-3.4,3.7-3.4,3.7c1.8,4.2,6.8,6.1,6.8,6.1
	c-4.7,1.2-8.5-4.3-8.5-4.3c-8.9,6.2-18.5,5.8-18.5,5.8c0.3,7.6-2.2,13.5-5.1,17.9c-2.9,4.4-4.6,9.4-4.8,14.7c-0.1,2-0.1,4.2-0.1,6.4
	c0.1,11.9,1.7,17.6,3.1,27.2c2,8.2,9.1,13.9,17.4,20.5c-0.1-0.1-0.8,0-1-0.1c-0.5-0.1-0.9-0.1-1.4-0.2c-5-0.8-9.8-2.6-14.6-4.1
	c-3.9-1.2-8.1-1.3-12.2-1.3c-3.6,0-7.4,0.3-10.7,1.7c-1.5,0.6-2.8,1.6-4.3,2.1c-0.7,0.2-1.5,0.4-2.2,0.5c-3.4,0.5-6.4-0.6-8.1-1.3
	c0,0-0.1,0-0.1-0.1c0,0-0.1,0-0.1-0.1c0,0-0.1,0-0.1-0.1c-0.1,0-0.2-0.1-0.2-0.1c0,0-0.1,0-0.1,0c-0.1,0-0.1-0.1-0.2-0.1
	c0,0,0,0-0.1,0c0,0-0.1,0-0.1-0.1c-0.1,0-0.1-0.1-0.2-0.1c0,0-0.1,0-0.1,0c12.9-0.7,16.1-11.5,16.3-12.5c0,0,0,0,0,0c0,0,0,0,0,0
	c3.6-15.9,3.7-22.3,3.1-31.8c-0.5-7.4-1.4-12-1.4-12.4c0,0,0,0,0,0c-0.3-2.5-0.8-4.8-1.5-7c-2.2-6.6-6.1-11.2-8.8-13.8l0,0
	c-0.3-0.3-0.6-0.6-0.9-0.9c-0.1-0.1-0.3-0.3-0.4-0.4c0,0,0,0-0.1-0.1c0,0,0,0,0,0c0,0-0.1-0.1-0.1-0.1c-0.1-0.1-0.2-0.1-0.3-0.2
	c0,0,0,0-0.1-0.1c-0.1-0.1-0.1-0.1-0.2-0.2c-0.1-0.1-0.1-0.1-0.2-0.2c-0.3-0.2-0.5-0.3-0.5-0.3c-0.6-0.4-1.3-0.9-2-1.3
	c-4.2-2.4-9.4-2.2-13.3,0.6c-0.2,0.1-0.3,0.2-0.5,0.4c0,0-0.2-2.5,4.8-5.3c0,0-1.7-2.6-5.7-3.6c0,0,0,0,0,0c-1.5-1-3.2-0.8-3.2-0.8
	c0,0.1,0,0.2,0,0.3c-0.4,0-0.9,0-1.4,0c-0.5,0-0.9,0.1-1.4,0.1c-2.1,0.3-9.3,1.1-14.7,0.9c0,0-3.1,4.4-8.9,3.3c0,0,5.3-1.5,6.5-4.6
	c0,0-0.8-0.9-2.5-2.2c-0.7-0.5-1.5-1.1-2.4-1.7c-3.3-2.2-8.2-4.6-14.5-5.4c0,0,10.9,0.3,17.9,5.8c1.7,1.3,3.8,2.1,5.9,2.1
	c1.7,0.1,3.8,0,5.8-0.5c0,0-4.6-4.1-2.4-9.7c0,0,2,7.7,5.6,7.8c0,0,1.1-0.1,2.9-0.2c0,0,0,0,0,0v0c3.9-0.2,10.8,0,14.4,3.1
	c0.9,0.8,1.9,1.5,3.1,2c0.8,0.3,1.8,0.6,2.8,0.8c1.5,0.2,2.9,0.6,4.3,1.3c4.4,1.9,7.8,5.5,10.2,8.9c-0.7-1.9-1.6-3.6-2.7-5.3
	c-1.4-2.1-3.1-4.5-5.3-6.8c0.7-1.4,0.4-2.9,0.4-2.9c-1.3,0-2.3,0.1-3.1,0.4c-0.4-0.3-0.7-0.7-1.1-1c0.1-0.2,0.1-0.4,0.1-0.4
	c-0.5-0.3-0.9-0.5-1.4-0.7c-2.1-1.9-4.1-3.9-6-6c-2.4-2.8-5.3-6.4-7.5-9.9c-0.5-0.8-1.4-1.3-2.3-1.3c-4.4,0.1-17.8,0-22-6
	c-0.5-0.7-1.2-1.1-2-1.2l-10.8-1.9l10.3-0.9c0,0-4.1-6.9-2.7-16.4c0,0,1.3,23.8,20.4,23.1c0,0-1.3-1.2-2-3.6
	c-0.1-0.4-0.2-0.8-0.3-1.2c0.3-0.5,0.6-1,1-1.6c0,0-0.4-0.4-1.1-0.7c0-0.3,0-0.5,0-0.8c0-0.4,0.1-0.8,0.1-1.2c0,0,0.2,0.6,0.5,1.4
	c0.3,0.7,0.6,1.5,1.1,2.4c1.2,2.4,2.9,5,4.8,5.1H65c0.7,0,1.4,0.3,1.7,0.9c0.5,0.8,1.4,2,2.3,3.3c0,0,0,0,0,0
	c0.2,0.2,0.4,0.5,0.6,0.8c2,2.6,4.4,5.3,5.9,5.6c0,0,0.3-3.2,2-6c0,0,0.4,2.9,0.4,5.5c0,1.9,1,3.8,2.6,4.8c2.6,1.6,6.4,4.1,9,6.7
	c0.7,0.7,2,0.5,2.4-0.5c0.3-0.9,0.6-2,0.6-3.4c0-2.2-0.7-4.3-2-6c0.1-0.2,0.2-0.4,0.4-0.7c0,0-0.5-0.4-1.3-0.8
	c-2-3.2-4.7-8.4-5.9-13c-0.5-2-1.8-3.7-3.4-4.9c-3.6-2.6-10.2-6.9-14.6-12c-2-2.3-4.2-4.3-6.7-5.8c-2-1.3-4.4-2.5-6.5-2.9
	c0,0,8-2,16,7c-0.1-0.2-2.7-4.2-3.6-10.3c0.3-0.9,0.5-2.1,0.5-3.5c0,0-0.3-0.1-0.8-0.1c0-1.6,0.1-3.3,0.3-5c0,0,2.5,14.5,9.6,19.1
	l0.6-4.9c0.2-0.2,0.3-0.4,0.4-0.7c0.3,4.4,1.5,14.1,7.5,15.4c0,0,3.5-8.7,3.5-14.5c0,0,1.2,9.3,0.8,17.9c-0.1,2.8,0.6,5.6,2,8
	c1.5,2.5,3.6,5.7,6.1,8.6c1.1,1.3,1.9,2.8,2.3,4.5c0.5,2.1,1,5.1,1.2,8.7v0.6c0,5.4,1.3,10.6,3.8,15.3c0.2-0.2,0.4-0.4,0.6-0.6
	c5.8-6.1,4.1-10,4.1-10.2c0,0,0,0,0,0c-0.1-0.3-0.1-0.6-0.2-0.8c-0.3-1-1-1.9-1.9-2.5c-3.3-2.5-3.6-7.4-3.6-7.4
	c0.1-1,0.1-1.9,0.2-2.8c0,0,0,0,0,0c0.1-0.4,0.3-0.9,0.3-1.4c0,0-0.1,0-0.3-0.1c0-1.5,0-2.8-0.1-3.8c-0.1-2-0.4-3.1-0.7-3.7
	c0,0,0-0.1,0-0.1c-0.2-0.5-0.4-0.6-0.4-0.6c-0.5-0.4-0.9-0.7-1.3-1.1c-0.5-0.4-0.9-0.9-1.3-1.3c-0.4-0.5-0.8-1-1.2-1.5
	c0,0,0-0.1-0.1-0.1c-0.3-0.4-0.5-0.8-0.7-1.2c-0.3-0.5-0.5-0.9-0.7-1.4c-0.1-0.3-0.3-0.6-0.4-0.9c0.1,0,0.2,0,0.3,0c0,0,0,0,0,0
	c0,0,0,0,0-0.1c0-0.5,0-2.2-1-3.7c0-0.5,0-0.9,0-1.3c0.1-2.7,0.9-4.6,0.9-4.6c0.1,2.5,0.6,4.5,1.4,6.2c0.4,0.8,0.8,1.6,1.3,2.3
	c2.3,3.4,5.3,4.8,5.3,4.8c0.5-1.2,0.9-2.5,1.2-3.8c0.7-0.8,1.3-2.2,1.6-4.2c0,0-0.3-0.1-0.7-0.2c1-7.2,0.6-14.3,0.6-14.3
	c-5-2.5-7.7-8.8-7.9-9.2c2.5,4,8,6.2,8,6.2c0.2-1.2,0.2-2.3,0-3.4c-0.3-2-1.1-3.6-1.9-4.8c0,0,0,0,0,0c0,0,0,0,0,0
	c-0.2-0.4-0.5-0.7-0.7-1c0,0,0-0.1-0.1-0.1c0-0.3,0.1-0.6,0.1-0.9c0-0.7-0.1-1.4-0.2-2.3c-0.1-0.3-0.1-0.5-0.2-0.8
	c0.5,0.5,1.3,0.5,1.9,0c0,0,0,0,0.1-0.1c2.3-2.1,3.5-7.3,3.5-7.3c1.8,4.6-1.9,8.9-1.9,8.9c2,3.8,2.9,8.4,3.3,12.5
	c0,0.4,0.1,0.7,0.1,1.1c-0.6-0.2-1.4-0.2-2.2-0.3c0,0-0.9,3.6,2.4,5v0.2c0,2.9-0.2,4.8-0.2,4.8c4.1-2.3,4.2-7.5,4.2-7.9
	c0.5,5.1-1.4,9.4-2.9,11.9c-1.5,2.5-2.7,5.3-3.3,8.2c-1.7,7.6-0.9,15.4,3.3,16.2c5.3,1,9.7-5.6,9.7-5.6c1.7-2.4,2.3-4.8,2.4-6.8
	c0-2.9-1.1-5.7-3-7.8c-0.8-0.9-1.4-1.7-1.8-2.6c-0.3-0.6-0.5-1.2-0.7-1.8c0,0,0,0,0,0c-0.1-0.5-0.2-1-0.3-1.4c0-0.3-0.1-0.5-0.1-0.8
	c0-0.3,0-0.5,0-0.8c0.4,0.1,0.8,0.1,1.2,0.2c0,0,0-0.1,0-0.2c0-0.1,0-0.2,0.1-0.3c0.1-0.7,0.1-2-0.9-2.9c0-0.1,0.1-0.3,0.1-0.4
	c0.1-0.5,0.3-1,0.4-1.4c0-0.1,0.1-0.3,0.1-0.4c0.8-0.6,1.5-1.7,1.9-3.6c0.3-0.5,0.7-1,1.2-1.4c0.2-0.2,0.3-0.3,0.5-0.5
	c5.2-4.9,3.5-17.4,3.5-17.4c4.1,5.7,3.5,11.3,2,15.4c-0.3-0.3-0.7-0.6-1.1-1c0,0-3.1,2.5-1.5,5.8c-0.6,0.9-1.1,1.5-1.1,1.5
	c-4.9,6,0,9.1,0,9.1c1.2-3.2,2.7-5.9,4.5-8.1c0.1-0.1,0.3-0.3,0.5-0.5c0,0,0.1-0.1,0.1-0.1c0.1-0.1,0.1-0.2,0.2-0.3c0,0,0,0,0,0
	c0,0,0,0,0,0c6.5-7.6,14.8-9.4,15.1-9.5c-13.5,7.6-18.3,22.1-18.3,22.1c3.2,2.8,3.9,8,4,10c0,0.5,0.1,0.9,0,1.4
	c-0.7,8.4-14,16.6-14,16.6c2.5,1.1,3.2,5.8,3.2,5.8c8.9,0.4,16-4.6,19.8-8c1.8-1.6,2.7-4,2.5-6.5c-1-9.9,4.1-15.7,4.1-15.7
	c3.6-3.7,2.9-12.5,2.9-12.5c1.6,1.7,2.2,7.4,2.2,7.4c5.6-5.8,16.7-4.6,16.7-4.6c-21.3,5.2-23.1,20.7-22.9,26.8c0.1,2,1.5,3.7,3.4,4
	c1.7,0.3,1.8,0.5,3.4,0.4c3.3-0.1,6.5-10.2,6.5-10.2c1.8,5.7-2.7,11-2.7,11c2.3,0.3,9.8,2.2,9.8,2.2c0.8-1.1,1.7-2.1,2.7-2.9
	c0.6-0.5,1.2-1,1.8-1.5c6.2-4.6,12.8-4.6,12.9-4.6c-9.2,2-14.9,10.2-14.9,10.2C171,86.6,172.9,90.6,172.9,90.7"/>
<g>
	<path fill="#FFFFFF" d="M303.7,93.8l-21.7,43.8h-10.7l-21.5-43.8v50.4H232V64.2h24.2l20.6,44l20.7-44h24.1v80.1h-17.9V93.8z"/>
	<path fill="#FFFFFF" d="M345.7,168.6c-6,0-11.7-2.4-17.1-7.3l7.8-12.7c2.9,2.8,5.9,4.2,8.9,4.2c1.6,0,3-0.8,4.1-2.3
		c1.1-1.6,1.7-3.2,1.7-5c0-1.8-7.9-22.7-23.8-62.8h18.3l15,38.4l15-38.4H394l-28.6,72.6c-1.7,4.2-4.3,7.5-7.8,9.8
		C354,167.4,350,168.6,345.7,168.6z"/>
	<path fill="#FFFFFF" d="M467.1,64.2v15.9h-39.9v16.5h35.9v15.2h-35.9v16.6h41.1v15.8h-59V64.2H467.1z"/>
	<path fill="#FFFFFF" d="M529.6,144.3h-16.2v-7.4c-4.4,5.6-9.9,8.4-16.4,8.4c-6.5,0-12-1.9-16.4-5.7c-4.4-3.8-6.6-8.8-6.6-15.1
		s2.3-11,6.9-14.2c4.6-3.1,10.8-4.7,18.8-4.7h12.8v-0.3c0-6.6-3.5-9.9-10.4-9.9c-3,0-6.1,0.6-9.5,1.8c-3.3,1.2-6.1,2.7-8.4,4.4
		l-7.7-11.1c8.1-5.9,17.3-8.8,27.7-8.8c7.5,0,13.6,1.9,18.3,5.6c4.7,3.7,7.1,9.7,7.1,17.8V144.3z M512.3,120.8v-3h-10.8
		c-6.9,0-10.3,2.1-10.3,6.4c0,2.2,0.8,3.9,2.5,5.1c1.6,1.2,4,1.8,7,1.8c3.1,0,5.7-0.9,8.1-2.8C511.1,126.4,512.3,123.9,512.3,120.8z
		"/>
	<path fill="#FFFFFF" d="M587.1,125.1c0,6.1-2.2,10.9-6.7,14.6c-4.5,3.7-10.1,5.5-17,5.5c-4.6,0-9.4-0.8-14.3-2.5
		c-5-1.6-9.4-4.1-13.4-7.3l7.6-10.8c6.4,5,13.3,7.4,20.5,7.4c2.2,0,4-0.4,5.3-1.3c1.3-0.9,1.9-2,1.9-3.5c0-1.5-0.9-2.8-2.7-4
		c-1.8-1.2-4.4-2.4-7.8-3.4c-3.4-1.1-6-2-7.8-2.7c-1.8-0.8-3.8-1.9-6.1-3.3c-4.7-2.9-7-7.2-7-12.9c0-5.7,2.3-10.3,6.9-13.9
		c4.6-3.6,10.5-5.4,17.8-5.4c7.3,0,14.5,2.4,21.8,7.3l-6.4,11.5c-5.3-3.7-10.7-5.5-16-5.5c-5.3,0-8,1.5-8,4.4c0,1.6,0.8,2.9,2.5,3.8
		c1.7,0.9,4.5,2,8.4,3.2c3.9,1.2,6.7,2.2,8.3,2.8c1.6,0.6,3.6,1.7,5.9,3C584.9,114.7,587.1,119,587.1,125.1z"/>
	<path fill="#FFFFFF" d="M609.8,168.6c-6,0-11.7-2.4-17.1-7.3l7.8-12.7c2.9,2.8,5.9,4.2,8.9,4.2c1.6,0,3-0.8,4.1-2.3
		c1.1-1.6,1.7-3.2,1.7-5c0-1.8-7.9-22.7-23.8-62.8h18.3l15,38.4l15-38.4h18.3l-28.6,72.6c-1.7,4.2-4.3,7.5-7.8,9.8
		C618.1,167.4,614.1,168.6,609.8,168.6z"/>
	<path fill="#FFFFFF" d="M675.8,144.3V64.2h17.9v64.2h34.1v15.9H675.8z"/>
	<path fill="#FFFFFF" d="M789.3,144.3h-16.2v-7.4c-4.4,5.6-9.9,8.4-16.4,8.4s-12-1.9-16.4-5.7c-4.4-3.8-6.6-8.8-6.6-15.1
		s2.3-11,6.9-14.2c4.6-3.1,10.8-4.7,18.8-4.7h12.8v-0.3c0-6.6-3.5-9.9-10.4-9.9c-3,0-6.1,0.6-9.5,1.8c-3.3,1.2-6.1,2.7-8.4,4.4
		l-7.7-11.1c8.1-5.9,17.3-8.8,27.7-8.8c7.5,0,13.6,1.9,18.3,5.6c4.7,3.7,7.1,9.7,7.1,17.8V144.3z M772,120.8v-3h-10.8
		c-6.9,0-10.3,2.1-10.3,6.4c0,2.2,0.8,3.9,2.5,5.1c1.6,1.2,4,1.8,7,1.8c3.1,0,5.7-0.9,8.1-2.8C770.8,126.4,772,123.9,772,120.8z"/>
	<path fill="#FFFFFF" d="M829.1,81.6c7.5,0,14,2.9,19.6,8.8c5.6,5.8,8.4,13.3,8.4,22.5c0,9.2-2.9,16.8-8.6,23
		c-5.7,6.2-12.2,9.3-19.5,9.3c-7.3,0-13.3-3-18.2-9.1v8.1h-17.2v-85h17.2v30.2C815.5,84.2,821.6,81.6,829.1,81.6z M810.5,113.5
		c0,5,1.4,9.1,4.2,12.3c2.8,3.2,6.2,4.8,10.1,4.8s7.4-1.6,10.4-4.8c3-3.2,4.5-7.2,4.5-12.2c0-5-1.5-9.1-4.4-12.5
		c-2.9-3.4-6.4-5-10.4-5c-4,0-7.5,1.7-10.3,5C811.9,104.3,810.5,108.5,810.5,113.5z"/>
	<path fill="#FFFFFF" d="M911.7,125.1c0,6.1-2.2,10.9-6.7,14.6c-4.5,3.7-10.1,5.5-17,5.5c-4.6,0-9.4-0.8-14.3-2.5
		c-5-1.6-9.4-4.1-13.4-7.3l7.6-10.8c6.4,5,13.3,7.4,20.5,7.4c2.2,0,4-0.4,5.3-1.3c1.3-0.9,1.9-2,1.9-3.5c0-1.5-0.9-2.8-2.7-4
		c-1.8-1.2-4.4-2.4-7.8-3.4c-3.4-1.1-6-2-7.8-2.7c-1.8-0.8-3.8-1.9-6.1-3.3c-4.7-2.9-7-7.2-7-12.9c0-5.7,2.3-10.3,6.9-13.9
		c4.6-3.6,10.5-5.4,17.8-5.4c7.3,0,14.5,2.4,21.8,7.3l-6.4,11.5c-5.3-3.7-10.7-5.5-16-5.5c-5.3,0-8,1.5-8,4.4c0,1.6,0.8,2.9,2.5,3.8
		c1.7,0.9,4.5,2,8.4,3.2c3.9,1.2,6.7,2.2,8.3,2.8c1.6,0.6,3.6,1.7,5.9,3C909.5,114.7,911.7,119,911.7,125.1z"/>
</g>
</svg>
